<?xml version="1.0" encoding="UTF-8"?><svg id="Layer_2" xmlns="http://www.w3.org/2000/svg" xmlns:xlink="http://www.w3.org/1999/xlink" viewBox="0 0 2421.94 1166.41"><defs><style>.cls-1{fill:none;}.cls-2{clip-path:url(#clippath);}.cls-3{fill:#ddd;}</style><clipPath id="clippath"><rect class="cls-1" width="2421.94" height="1166.41"/></clipPath></defs><g id="Livello_1"><g class="cls-2"><g><path class="cls-3" d="m461.98,2031.35l-.22-.11c14.38-28,27.03-59.71,36.58-91.68,10.71-35.86,17.65-71.95,20.63-107.26,3.32-39.39,1.63-77.25-5.04-112.53-7.41-39.19-21.01-75.36-40.43-107.5-34.64-57.33-88.03-102.44-158.67-134.1-38.94-17.45-83.7-31-133.05-40.29-52.43-9.87-111.37-15.18-175.18-15.77-65.89-.61-129.41-3.44-188.81-8.43-57.41-4.82-112.53-11.77-163.8-20.66-49.48-8.58-96.73-19.21-140.43-31.58-42.09-11.91-82.02-25.76-118.7-41.17-35.24-14.8-68.41-31.44-98.59-49.45-28.93-17.26-55.88-36.23-80.12-56.4-45.24-37.65-82.7-80.84-111.34-128.38-20.64-34.26-37.11-71.48-48.97-110.62-10.78-35.58-17.99-73.56-21.42-112.87-5.79-66.2-1.12-137.37,13.88-211.52,13.34-65.97,32.56-122.14,46.33-157.65,14.92-38.47,26.84-61.64,26.96-61.87l.22.12c-.12.23-12.04,23.39-26.95,61.85-13.77,35.5-32.98,91.65-46.32,157.61-14.99,74.13-19.66,145.27-13.87,211.45,3.43,39.29,10.64,77.25,21.42,112.81,11.85,39.12,28.32,76.32,48.95,110.56,28.63,47.52,66.07,90.69,111.29,128.32,24.23,20.16,51.17,39.13,80.09,56.38,30.17,18,63.33,34.63,98.56,49.43,36.67,15.4,76.59,29.25,118.67,41.16,43.7,12.37,90.94,22.99,140.41,31.57,51.27,8.89,106.38,15.84,163.78,20.66,59.39,4.98,122.9,7.82,188.79,8.42,63.82.59,122.77,5.9,175.22,15.77,49.37,9.3,94.15,22.86,133.11,40.31,70.69,31.67,124.11,76.83,158.78,134.2,19.44,32.16,33.05,68.36,40.46,107.58,6.67,35.3,8.37,73.19,5.04,112.6-2.98,35.34-9.93,71.44-20.64,107.32-9.56,31.99-22.21,63.71-36.6,91.73Z"/><path class="cls-3" d="m498.9,2016.25l-.22-.11c14.25-27.75,26.79-59.41,36.25-91.57,10.62-36.05,17.45-72.44,20.32-108.14,3.2-39.87,1.34-78.22-5.51-113.98-7.62-39.79-21.48-76.49-41.2-109.09-34.93-57.75-88.43-103.18-159.02-135.04-38.93-17.57-83.63-31.21-132.87-40.54-52.33-9.92-111.12-15.22-174.71-15.76-125.67-1.13-240.99-10.42-342.77-27.61-94.96-16.04-180.49-39.36-254.23-69.3-68.24-27.71-128.03-61.78-177.71-101.25-45.51-36.15-83.6-77.68-113.22-123.44-20.54-31.73-37.42-66.15-50.19-102.3-11.71-33.15-20.22-68.54-25.31-105.19-8.73-62.82-7.69-130.82,3.09-202.1,8.05-53.29,21.46-108.06,39.84-162.81,14.76-43.96,28.77-75.96,34.76-89.63,1.95-4.45,3.23-7.38,3.22-7.73h.25c.02.38-.92,2.54-3.24,7.83-5.99,13.66-20,45.66-34.75,89.61-18.38,54.74-31.77,109.5-39.83,162.77-10.77,71.26-11.81,139.23-3.08,202.03,5.09,36.63,13.6,72,25.3,105.14,12.76,36.13,29.63,70.53,50.16,102.25,29.6,45.73,67.68,87.24,113.17,123.38,49.66,39.45,109.43,73.5,177.65,101.21,73.72,29.94,159.23,53.25,254.17,69.29,101.76,17.19,217.08,26.48,342.73,27.61,63.61.54,122.41,5.84,174.76,15.76,49.26,9.34,93.98,22.98,132.93,40.56,70.64,31.88,124.18,77.35,159.13,135.14,19.73,32.62,33.61,69.36,41.23,109.17,6.86,35.79,8.71,74.16,5.51,114.05-2.87,35.72-9.7,72.13-20.32,108.19-9.47,32.18-22.02,63.86-36.27,91.62Z"/><path class="cls-3" d="m535.82,2001.14l-.22-.11c14.11-27.49,26.54-59.11,35.92-91.46,10.52-36.25,17.25-72.93,19.99-109.03,3.07-40.35,1.06-79.19-5.98-115.44-7.84-40.38-21.96-77.63-41.98-110.69-35.21-58.16-88.83-103.9-159.37-135.96-38.92-17.69-83.56-31.41-132.7-40.78-52.23-9.96-110.86-15.26-174.25-15.74-123.45-1.08-236.87-10.12-337.12-26.87-93.63-15.64-178.11-38.4-251.11-67.64-67.64-27.09-127.07-60.42-176.64-99.04-45.47-35.43-83.73-76.17-113.7-121.07-20.54-30.78-37.62-64.16-50.76-99.21-12.08-32.25-21.13-66.68-26.88-102.36-9.92-61.51-10.38-128.3-1.37-198.51,6.82-53.17,19.06-108.41,36.38-164.18,14.14-45.53,28.12-80.04,35.64-98.58,3.47-8.58,5.57-13.75,5.53-14.73h.25c.04,1.02-1.94,5.92-5.55,14.82-7.51,18.54-21.49,53.04-35.63,98.56-17.32,55.76-29.56,110.99-36.37,164.14-9,70.19-8.54,136.96,1.37,198.44,5.75,35.66,14.79,70.08,26.87,102.31,13.13,35.04,30.2,68.4,50.73,99.16,29.95,44.88,68.19,85.59,113.64,121.01,49.55,38.61,108.96,71.92,176.58,99,72.98,29.23,157.45,51.98,251.06,67.62,100.24,16.75,213.65,25.78,337.08,26.86,63.4.48,122.04,5.78,174.29,15.75,49.15,9.38,93.81,23.1,132.75,40.8,70.59,32.08,124.24,77.86,159.48,136.06,20.03,33.09,34.17,70.36,42.01,110.77,7.04,36.27,9.05,75.13,5.98,115.51-2.75,36.12-9.48,72.82-20,109.08-9.39,32.36-21.82,64-35.94,91.5Z"/><path class="cls-3" d="m572.74,1986.04l-.22-.11c13.98-27.22,26.29-58.81,35.59-91.34,10.42-36.45,17.04-73.44,19.67-109.93,2.94-40.84.77-80.17-6.45-116.91-8.06-40.99-22.44-78.77-42.76-112.3-35.49-58.56-89.22-104.61-159.71-136.86-38.91-17.8-83.49-31.6-132.51-41.01-52.13-10-110.6-15.29-173.78-15.73-121.51-1.03-233.27-9.86-332.17-26.24-92.44-15.31-175.98-37.61-248.28-66.27-67.07-26.58-126.13-59.29-175.54-97.22-45.39-34.84-83.72-74.92-113.93-119.11-20.56-30.08-37.79-62.71-51.22-96.97-12.38-31.58-21.82-65.33-28.07-100.31-10.81-60.54-12.42-126.44-4.78-195.89,13.6-123.58,52.51-225.99,69.12-269.72,4.63-12.18,7.42-19.53,7.35-21.28h.25c.07,1.79-2.73,9.16-7.36,21.37-16.61,43.72-55.51,146.12-69.11,269.66-7.64,69.42-6.04,135.3,4.78,195.82,6.25,34.96,15.68,68.69,28.05,100.26,13.42,34.25,30.64,66.86,51.19,96.92,30.2,44.18,68.51,84.23,113.88,119.06,49.39,37.92,108.43,70.62,175.48,97.19,72.29,28.65,155.81,50.94,248.23,66.25,98.88,16.38,210.63,25.21,332.13,26.24,63.19.43,121.68,5.72,173.83,15.73,49.04,9.41,93.65,23.21,132.57,41.03,70.53,32.27,124.3,78.35,159.82,136.96,20.33,33.55,34.73,71.36,42.79,112.38,7.22,36.76,9.4,76.12,6.45,116.98-2.63,36.51-9.25,73.51-19.68,109.98-9.31,32.55-21.62,64.15-35.61,91.39Z"/><path class="cls-3" d="m609.66,1970.94l-.22-.11c29.92-58.27,49.82-131.92,54.6-202.07,2.81-41.33.49-81.17-6.92-118.4-8.27-41.6-22.92-79.93-43.54-113.92-35.76-58.96-89.6-105.3-160.04-137.74-38.89-17.91-83.42-31.79-132.33-41.23-52.03-10.04-110.34-15.33-173.32-15.71-119.73-.98-229.95-9.62-327.59-25.68-91.33-15.02-173.97-36.91-245.61-65.05-66.51-26.13-125.2-58.3-174.43-95.62-45.27-34.32-83.64-73.81-114.03-117.38-20.59-29.51-37.96-61.53-51.63-95.15-12.62-31.05-22.4-64.24-29.06-98.65-11.57-59.75-14.13-124.94-7.64-193.76,4.99-52.88,15.42-108.61,30.98-165.63,12.94-47.4,26.32-84.72,35.18-109.42,5.37-14.98,8.92-24.88,8.81-27.49h.25c.11,2.66-3.25,12.04-8.83,27.58-8.85,24.69-22.24,62.01-35.17,109.4-15.56,57.01-25.98,112.72-30.98,165.59-6.5,68.8-3.93,133.97,7.63,193.69,6.66,34.4,16.43,67.57,29.05,98.61,13.66,33.61,31.02,65.61,51.6,95.11,30.38,43.55,68.73,83.03,113.98,117.33,49.21,37.3,107.88,69.46,174.37,95.59,71.63,28.14,154.25,50.02,245.56,65.04,97.62,16.05,207.83,24.69,327.55,25.68,62.99.38,121.31,5.66,173.36,15.71,48.93,9.45,93.48,23.32,132.39,41.25,70.48,32.46,124.36,78.84,160.15,137.84,20.63,34.02,35.29,72.37,43.57,114,7.41,37.25,9.74,77.11,6.92,118.46-4.78,70.18-24.69,143.87-54.63,202.17Z"/><path class="cls-3" d="m646.57,1955.84l-.22-.11c13.71-26.7,25.78-58.2,34.91-91.12,10.23-36.87,16.63-74.47,19.02-111.76,2.68-41.83.2-82.17-7.39-119.9-8.49-42.21-23.41-81.09-44.33-115.54-36.03-59.35-89.98-105.98-160.36-138.61-38.88-18.02-83.34-31.97-132.15-41.44-51.93-10.08-110.08-15.36-172.85-15.69-427.9-3.4-715.11-104.01-853.64-299.03-171.73-241.76-64.2-558.22-28.86-662.21,6.11-17.98,10.15-29.87,10-33.43h.25c.15,3.6-3.89,15.5-10.01,33.51-35.33,103.96-142.83,420.33,28.83,661.98,138.48,194.95,425.62,295.52,853.44,298.92,62.78.33,120.95,5.61,172.9,15.69,48.83,9.48,93.31,23.43,132.21,41.46,70.43,32.65,124.42,79.31,160.47,138.7,20.93,34.48,35.86,73.38,44.36,115.62,7.59,37.75,10.08,78.11,7.4,119.96-2.39,37.31-8.8,74.92-19.03,111.81-9.14,32.93-21.22,64.45-34.93,91.16Z"/><path class="cls-3" d="m683.49,1940.74l-.22-.11c13.57-26.43,25.53-57.9,34.57-91,10.13-37.08,16.42-74.99,18.69-112.68,2.55-42.34-.09-83.19-7.87-121.41-8.71-42.83-23.89-82.26-45.11-117.18-36.29-59.73-90.35-106.64-160.68-139.45-38.87-18.13-83.27-32.14-131.96-41.65-51.83-10.12-109.82-15.39-172.38-15.66-116.44-.89-223.79-9.19-319.07-24.67-89.25-14.5-170.17-35.65-240.54-62.89-65.43-25.32-123.36-56.53-172.18-92.77-44.98-33.38-83.34-71.83-114-114.3-73.45-101.7-105.56-229.1-95.45-378.66,8.23-121.84,42.09-226.73,60.28-283.08,6.72-20.81,11.15-34.56,10.97-39.14h.25c.19,4.61-4.25,18.38-10.98,39.21-18.19,56.34-52.04,161.21-60.27,283.02-10.1,149.5,22,276.84,95.41,378.5,30.65,42.44,68.99,80.88,113.95,114.24,48.81,36.22,106.72,67.42,172.12,92.73,70.35,27.23,151.26,48.38,240.49,62.87,95.27,15.47,202.6,23.77,319.03,24.67,62.58.27,120.59,5.55,172.43,15.67,48.72,9.51,93.14,23.53,132.02,41.67,70.37,32.82,124.47,79.77,160.79,139.54,21.24,34.95,36.42,74.4,45.14,117.26,7.78,38.24,10.43,79.11,7.88,121.47-2.28,37.71-8.57,75.64-18.7,112.73-9.05,33.12-21.01,64.6-34.59,91.05Z"/><path class="cls-3" d="m720.41,1925.64l-.22-.11c13.43-26.16,25.27-57.59,34.22-90.88,10.03-37.29,16.21-75.52,18.36-113.62,2.42-42.85-.38-84.21-8.35-122.93-8.94-43.46-24.38-83.43-45.9-118.82-36.55-60.1-90.72-107.29-160.99-140.27-38.85-18.23-83.19-32.31-131.78-41.85-51.72-10.15-109.56-15.41-171.92-15.64-114.89-.85-220.88-8.99-315.03-24.2-88.25-14.25-168.35-35.08-238.09-61.9-64.89-24.95-122.44-55.73-171.05-91.46-44.82-32.95-83.14-70.93-113.91-112.88-172.15-234.78-76.99-544.62-41.16-661.26,7.21-23.48,11.97-38.99,11.74-44.63h.25c.23,5.67-4.53,21.2-11.75,44.7-35.82,116.61-130.95,426.37,41.12,661.04,30.75,41.93,69.05,79.9,113.85,112.83,48.59,35.72,106.12,66.48,170.99,91.43,69.72,26.81,149.81,47.63,238.04,61.88,94.14,15.21,200.12,23.35,314.99,24.2,62.37.22,120.23,5.49,171.97,15.64,48.61,9.54,92.97,23.63,131.84,41.87,70.32,32.99,124.52,80.22,161.1,140.36,21.54,35.41,36.99,75.42,45.94,118.9,7.97,38.74,10.78,80.12,8.35,123-2.16,38.11-8.34,76.36-18.37,113.67-8.96,33.31-20.8,64.76-34.24,90.93Z"/><path class="cls-3" d="m757.33,1910.54l-.22-.11c13.29-25.87,24.99-57.2,33.85-90.6,9.93-37.42,16-75.87,18.05-114.27,2.31-43.25-.63-85.02-8.74-124.16-9.11-43.98-24.76-84.44-46.51-120.26-36.76-60.54-91.02-108.11-161.27-141.39-38.85-18.41-83.16-32.65-131.69-42.32-51.66-10.3-109.41-15.67-171.64-15.98-113.24-.56-217.79-8.32-310.76-23.07-87.19-13.83-166.43-34.16-235.52-60.42-64.34-24.46-121.5-54.68-169.88-89.82-44.66-32.44-82.97-69.88-113.85-111.28-20.8-27.89-38.7-58.19-53.18-90.06-13.43-29.57-24.28-61.24-32.23-94.15-13.92-57.6-19.48-120.93-16.51-188.25,2.31-52.56,9.92-108.97,22.62-167.67,10.75-49.72,23.03-91.77,31.99-122.47,7.6-26.03,12.62-43.23,12.34-49.97h.25c.28,6.77-4.75,23.99-12.35,50.04-8.96,30.7-21.23,72.74-31.99,122.46-12.69,58.68-20.3,115.08-22.61,167.63-2.96,67.29,2.59,130.61,16.51,188.18,7.95,32.89,18.79,64.55,32.22,94.1,14.47,31.85,32.36,62.14,53.15,90.01,30.87,41.38,69.16,78.8,113.8,111.23,48.37,35.13,105.51,65.34,169.83,89.79,69.07,26.25,148.29,46.58,235.47,60.4,92.95,14.74,197.5,22.5,310.72,23.06,62.25.31,120.01,5.69,171.69,15.99,48.55,9.68,92.87,23.92,131.74,42.34,70.29,33.31,124.59,80.91,161.37,141.49,21.76,35.84,37.42,76.33,46.54,120.34,8.11,39.16,11.06,80.95,8.75,124.22-2.05,38.42-8.12,76.88-18.05,114.32-8.86,33.42-20.58,64.76-33.87,90.65Z"/><path class="cls-3" d="m794.25,1895.44l-.22-.11c13.14-25.6,24.73-56.88,33.49-90.46,9.83-37.64,15.79-76.39,17.72-115.19,2.18-43.76-.92-86.04-9.21-125.67-9.33-44.6-25.24-85.62-47.28-121.9-37-60.9-91.36-108.75-161.56-142.22-38.84-18.52-83.08-32.83-131.51-42.54-51.56-10.34-109.16-15.72-171.2-16-111.75-.49-215-8.08-306.88-22.56-86.23-13.59-164.67-33.59-233.13-59.45-63.81-24.1-120.58-53.9-168.73-88.58-44.49-32.03-82.73-69.02-113.68-109.95-20.85-27.57-38.85-57.53-53.5-89.06-13.6-29.28-24.66-60.66-32.87-93.27-14.4-57.17-20.56-120.14-18.33-187.16,4.04-121.05,33.96-228.6,51.83-292.86,7.63-27.41,13.14-47.22,12.81-55.1h.25c.33,7.91-4.9,26.71-12.82,55.17-17.87,64.25-47.79,171.78-51.82,292.8-2.23,67,3.93,129.94,18.32,187.09,8.21,32.6,19.26,63.96,32.86,93.22,14.64,31.51,32.63,61.46,53.47,89.02,30.94,40.9,69.17,77.88,113.63,109.89,48.14,34.66,104.89,64.46,168.68,88.55,68.45,25.86,146.87,45.85,233.08,59.44,91.87,14.48,195.11,22.07,306.85,22.56,62.05.27,119.67,5.66,171.25,16,48.45,9.71,92.71,24.03,131.57,42.56,70.24,33.49,124.64,81.37,161.67,142.32,22.06,36.31,37.98,77.34,47.32,121.97,8.29,39.65,11.39,81.95,9.21,125.73-1.93,38.82-7.9,77.59-17.72,115.24-8.77,33.6-20.36,64.9-33.51,90.51Z"/><path class="cls-3" d="m831.17,1880.33l-.22-.11c13-25.32,24.46-56.56,33.14-90.32,9.72-37.85,15.57-76.92,17.39-116.12,2.05-44.27-1.21-87.07-9.68-127.19-9.55-45.23-25.72-86.79-48.06-123.54-37.25-61.26-91.7-109.38-161.85-143.03-38.82-18.62-83-33-131.33-42.75-51.46-10.38-108.92-15.77-170.76-16.01-110.3-.43-212.27-7.85-303.09-22.07-85.28-13.35-162.92-33.04-230.78-58.52-63.28-23.76-119.66-53.16-167.58-87.38-44.3-31.64-82.48-68.19-113.49-108.66-20.9-27.27-39-56.93-53.8-88.14-13.76-29.01-25.02-60.12-33.47-92.46-14.84-56.78-21.59-119.41-20.04-186.17,2.8-120.76,31.79-230.06,49.11-295.36,7.85-29.61,13.53-51.01,13.15-60.06h.25c.37,9.08-5.3,30.49-13.16,60.12-17.32,65.29-46.3,174.57-49.1,295.3-1.55,66.73,5.19,129.34,20.03,186.1,8.45,32.33,19.71,63.42,33.46,92.42,14.79,31.2,32.88,60.84,53.77,88.09,30.99,40.44,69.16,76.98,113.43,108.6,47.9,34.21,104.26,63.6,167.52,87.35,67.84,25.47,145.47,45.15,230.73,58.5,90.8,14.22,192.76,21.64,303.05,22.07,61.86.24,119.33,5.63,170.81,16.01,48.34,9.75,92.55,24.14,131.39,42.77,70.19,33.67,124.68,81.82,161.95,143.12,22.36,36.77,38.54,78.36,48.09,123.62,8.48,40.14,11.73,82.96,9.69,127.25-1.81,39.22-7.67,78.3-17.39,116.17-8.68,33.78-20.14,65.04-33.16,90.37Z"/><path class="cls-3" d="m868.09,1865.23l-.22-.11c12.86-25.05,24.2-56.23,32.78-90.18,9.62-38.07,15.36-77.45,17.05-117.05,1.92-44.79-1.5-88.1-10.15-128.72-9.77-45.86-26.2-87.98-48.84-125.19-37.49-61.62-92.03-110-162.13-143.82-38.8-18.72-82.93-33.17-131.15-42.95-51.36-10.42-108.67-15.81-170.32-16.01-108.87-.36-209.59-7.63-299.36-21.6-84.34-13.13-161.2-32.51-228.45-57.61-62.75-23.43-118.74-52.43-166.42-86.21-44.11-31.25-82.21-67.39-113.26-107.4-20.95-27-39.15-56.36-54.1-87.28-13.91-28.76-25.36-59.62-34.05-91.72-15.27-56.42-22.56-118.75-21.66-185.27.72-53.08,6.41-108.23,17.4-168.62,9.26-50.89,20.69-96.08,29.03-129.08,8.02-31.7,13.81-54.61,13.39-64.85h.25c.42,10.27-5.37,33.19-13.39,64.91-8.34,32.99-19.77,78.18-29.03,129.06-10.99,60.38-16.68,115.52-17.4,168.58-.9,66.49,6.39,128.8,21.65,185.2,8.68,32.08,20.13,62.93,34.03,91.67,14.94,30.91,33.13,60.26,54.07,87.24,31.03,39.99,69.12,76.11,113.21,107.35,47.66,33.77,103.63,62.77,166.36,86.18,67.23,25.1,144.08,44.48,228.4,57.6,89.75,13.97,190.46,21.23,299.32,21.59,61.67.2,118.99,5.59,170.37,16.02,48.24,9.79,92.39,24.25,131.21,42.97,70.14,33.83,124.72,82.25,162.23,143.91,22.65,37.23,39.09,79.38,48.87,125.27,8.66,40.64,12.07,83.97,10.16,128.78-1.69,39.62-7.44,79.02-17.06,117.1-8.59,33.97-19.93,65.17-32.8,90.23Z"/><path class="cls-3" d="m905.01,1850.13l-.22-.12c12.72-24.77,23.93-55.9,32.41-90.04,9.52-38.29,15.15-78,16.72-118,1.78-45.32-1.79-89.15-10.62-130.27-9.99-46.49-26.68-89.17-49.62-126.85-37.72-61.96-92.36-110.61-162.4-144.59-38.78-18.81-82.85-33.33-130.97-43.15-51.26-10.46-108.42-15.85-169.88-16.02-107.47-.3-206.95-7.41-295.68-21.14-83.42-12.91-159.5-31.99-226.14-56.73-62.23-23.1-117.83-51.73-165.25-85.08-43.91-30.88-81.93-66.61-113.01-106.18-21-26.74-39.3-55.83-54.39-86.48-14.05-28.53-25.69-59.15-34.6-91.02-15.68-56.08-23.49-118.14-23.21-184.44.22-53.02,5.39-108.27,15.79-168.92,8.79-51.23,19.45-95.45,28.01-130.98,8.12-33.7,13.99-58.04,13.52-69.49h.25c.47,11.47-5.4,35.83-13.53,69.55-8.56,35.53-19.22,79.74-28.01,130.96-10.4,60.64-15.57,115.88-15.79,168.88-.28,66.28,7.53,128.31,23.2,184.37,8.91,31.86,20.54,62.47,34.58,90.98,15.08,30.63,33.38,59.72,54.36,86.44,31.06,39.55,69.07,75.26,112.96,106.13,47.41,33.34,102.99,61.96,165.2,85.05,66.63,24.73,142.7,43.82,226.09,56.72,88.72,13.73,188.19,20.84,295.65,21.13,61.48.17,118.65,5.56,169.93,16.02,48.14,9.82,92.23,24.35,131.03,43.17,70.09,34,124.76,82.68,162.51,144.68,22.95,37.7,39.65,80.4,49.65,126.92,8.84,41.14,12.42,84.99,10.63,130.33-1.58,40.02-7.2,79.74-16.73,118.05-8.49,34.16-19.71,65.31-32.43,90.1Z"/><path class="cls-3" d="m941.93,1835.03l-.22-.12c12.57-24.49,23.66-55.57,32.05-89.9,9.29-37.98,14.95-79.11,16.39-118.95,2.47-68.64-6.19-169.53-61.5-260.33-37.95-62.3-92.68-111.21-162.67-145.34-38.76-18.91-82.77-33.49-130.79-43.34-51.16-10.5-108.17-15.89-169.44-16.02-106.09-.23-204.36-7.19-292.07-20.69-82.5-12.69-157.82-31.49-223.86-55.88-61.71-22.79-116.91-51.04-164.08-83.98-43.71-30.52-81.64-65.84-112.74-104.99-21.05-26.49-39.45-55.34-54.68-85.74-14.19-28.31-26.01-58.72-35.13-90.38-16.07-55.77-24.37-117.57-24.69-183.68-.58-120.08,24.58-229.55,41.22-302,8.18-35.59,14.08-61.31,13.56-73.98h.25c.52,12.7-5.39,38.43-13.57,74.04-16.64,72.43-41.79,181.89-41.21,301.94.32,66.09,8.62,127.86,24.68,183.61,9.12,31.64,20.93,62.04,35.11,90.34,15.22,30.38,33.61,59.21,54.65,85.69,31.09,39.12,69,74.43,112.69,104.94,47.15,32.92,102.34,61.17,164.03,83.95,66.03,24.38,141.33,43.18,223.81,55.86,87.7,13.49,185.95,20.45,292.03,20.68,61.29.14,118.31,5.53,169.49,16.03,48.04,9.86,92.07,24.45,130.85,43.36,70.04,34.16,124.8,83.09,162.78,145.44,55.34,90.85,64.01,191.79,61.53,260.47-1.44,39.86-7.1,81.01-16.39,119-8.4,34.35-19.49,65.45-32.07,89.96Z"/><path class="cls-3" d="m978.85,1819.93l-.22-.11c12.43-24.21,23.38-55.24,31.68-89.76,9.18-38.21,14.73-79.68,16.05-119.92,2.28-69.54-6.76-171.71-62.75-263.57-38.18-62.64-93-111.79-162.93-146.08-38.74-19-82.68-33.64-130.6-43.53-51.06-10.53-107.91-15.92-169-16.02-104.73-.17-201.79-6.99-288.5-20.25-81.6-12.48-156.15-31-221.59-55.04-61.19-22.48-116-50.37-162.91-82.9-43.5-30.16-81.33-65.09-112.45-103.82-21.1-26.26-39.59-54.87-54.96-85.03-14.32-28.11-26.31-58.32-35.64-89.78-8.61-29.04-15.17-59.93-19.52-91.82-3.96-29.04-6.18-59.72-6.6-91.16-1.61-119.9,22.63-230.7,38.68-304.01,8.18-37.39,14.1-64.41,13.52-78.32h.25c.57,13.93-5.34,40.96-13.53,78.37-16.04,73.3-40.29,184.08-38.67,303.95.42,31.44,2.64,62.1,6.6,91.13,4.34,31.88,10.91,62.75,19.51,91.78,9.32,31.45,21.3,61.64,35.62,89.74,15.36,30.14,33.84,58.74,54.93,84.99,31.1,38.71,68.91,73.62,112.4,103.77,46.9,32.52,101.69,60.4,162.85,82.87,65.43,24.04,139.97,42.55,221.54,55.03,86.69,13.26,183.74,20.07,288.46,20.25,61.1.1,117.97,5.49,169.05,16.03,47.94,9.89,91.9,24.54,130.66,43.54,69.98,34.32,124.84,83.5,163.04,146.17,56.02,91.92,65.07,194.14,62.79,263.71-1.32,40.26-6.87,81.74-16.06,119.97-8.3,34.54-19.26,65.59-31.7,89.81Z"/><path class="cls-3" d="m1015.77,1804.83l-.22-.11c12.28-23.92,23.11-54.91,31.31-89.62,9.08-38.44,14.51-80.24,15.71-120.89,2.08-70.43-7.34-173.9-64.01-266.83-38.4-62.96-93.31-112.35-163.19-146.8-38.72-19.08-82.6-33.79-130.42-43.7-50.95-10.56-107.66-15.95-168.56-16.02-103.39-.11-199.27-6.78-284.98-19.82-80.7-12.28-154.5-30.52-219.35-54.22-60.67-22.18-115.08-49.71-161.74-81.84-43.29-29.82-81.02-64.36-112.14-102.67-21.15-26.04-39.74-54.43-55.23-84.37-14.45-27.92-26.61-57.94-36.13-89.22-8.79-28.89-15.58-59.65-20.16-91.41-4.18-28.95-6.64-59.55-7.33-90.94-2.62-119.76,20.73-231.8,36.18-305.95,8.15-39.11,14.04-67.36,13.41-82.51h.25c.62,15.17-5.26,43.44-13.42,82.56-15.45,74.13-38.79,186.17-36.18,305.89.69,31.38,3.15,61.97,7.33,90.91,4.58,31.75,11.36,62.49,20.15,91.37,9.52,31.27,21.67,61.27,36.11,89.17,15.49,29.92,34.06,58.29,55.21,84.33,31.1,38.3,68.82,72.82,112.09,102.63,46.63,32.12,101.03,59.64,161.68,81.82,64.83,23.7,138.61,41.94,219.3,54.21,85.69,13.04,181.56,19.7,284.94,19.82,60.91.07,117.64,5.46,168.61,16.03,47.84,9.92,91.74,24.63,130.48,43.72,69.93,34.47,124.87,83.89,163.29,146.89,56.71,92.98,66.13,196.5,64.05,266.97-1.2,40.66-6.64,82.48-15.72,120.94-8.2,34.73-19.04,65.74-31.33,89.67Z"/><path class="cls-3" d="m1052.68,1789.73l-.22-.12c20.76-40.43,43.83-117.18,46.31-211.34,1.88-71.34-7.92-176.12-65.28-270.11-38.62-63.28-93.61-112.91-163.44-147.5-38.7-19.17-82.51-33.93-130.23-43.87-50.85-10.59-107.41-15.98-168.12-16.02-102.07-.06-196.77-6.58-281.49-19.4-79.81-12.07-152.86-30.05-217.11-53.43-60.15-21.88-114.17-49.07-160.55-80.81-43.08-29.47-80.69-63.64-111.81-101.55-21.21-25.84-39.88-54.01-55.51-83.74-14.58-27.74-26.9-57.58-36.61-88.69-8.97-28.76-15.97-59.38-20.78-91.02-4.39-28.87-7.1-59.4-8.04-90.74-1.58-52.87,1.63-108.54,9.84-170.17,6.99-52.47,16.35-99.71,23.88-137.67,7.77-39.2,13.91-70.16,13.23-86.56h.25c.68,16.41-5.16,45.86-13.24,86.61-7.52,37.95-16.89,85.19-23.88,137.65-8.21,61.62-11.43,117.28-9.84,170.13.94,31.33,3.64,61.85,8.03,90.71,4.81,31.63,11.8,62.24,20.77,90.99,9.71,31.1,22.01,60.92,36.59,88.65,15.62,29.71,34.28,57.87,55.48,83.7,31.1,37.89,68.7,72.04,111.76,101.5,46.37,31.73,100.37,58.91,160.5,80.78,64.24,23.37,137.27,41.34,217.07,53.41,84.71,12.82,179.4,19.34,281.46,19.4,60.72.03,117.3,5.42,168.17,16.02,47.74,9.95,91.58,24.71,130.29,43.89,69.88,34.61,124.9,84.27,163.54,147.6,57.39,94.04,67.19,198.87,65.31,270.24-2.48,94.2-25.56,171-46.34,211.45Z"/><path class="cls-3" d="m1089.6,1774.62l-.22-.12c11.99-23.35,22.56-54.24,30.56-89.33,8.87-38.92,14.07-81.4,15.04-122.86,1.68-72.26-8.5-178.35-66.54-273.4-38.83-63.6-93.91-113.45-163.68-148.19-38.67-19.25-82.43-34.07-130.05-44.04-50.74-10.62-107.16-16.01-167.68-16.01-100.76,0-194.31-6.39-278.05-18.99-78.93-11.88-151.23-29.59-214.9-52.64-59.63-21.59-113.25-48.44-159.37-79.8-42.86-29.14-80.36-62.93-111.47-100.45-21.26-25.64-40.03-53.62-55.78-83.15-14.7-27.57-27.18-57.25-37.07-88.2-9.15-28.63-16.34-59.13-21.38-90.67-4.6-28.79-7.53-59.26-8.72-90.56-2-52.86.76-108.63,8.46-170.51,6.56-52.76,15.59-100.67,22.84-139.18,7.67-40.69,13.72-72.82,13-90.46h.25c.73,17.66-5.33,49.8-13,90.51-7.25,38.5-16.28,86.41-22.84,139.16-7.69,61.87-10.46,117.63-8.46,170.47,1.19,31.29,4.12,61.75,8.72,90.54,5.04,31.53,12.23,62.02,21.38,90.63,9.89,30.94,22.35,60.6,37.05,88.16,15.74,29.52,34.5,57.48,55.75,83.11,31.09,37.5,68.58,71.28,111.42,100.4,46.1,31.34,99.7,58.18,159.32,79.77,63.65,23.05,135.93,40.76,214.85,52.63,83.73,12.6,177.27,18.99,278.01,18.99,60.54,0,116.97,5.39,167.73,16.01,47.64,9.97,91.42,24.8,130.11,44.06,69.82,34.75,124.93,84.64,163.79,148.28,58.07,95.1,68.26,201.24,66.58,273.54-.96,41.47-6.17,83.97-15.04,122.91-8.01,35.11-18.58,66.02-30.58,89.39Z"/><path class="cls-3" d="m1126.52,1759.52l-.22-.11c11.67-22.73,22.39-54.4,30.18-89.18,8.77-39.16,13.85-81.99,14.7-123.86,1.48-73.19-9.09-180.6-67.81-276.71-39.05-63.9-94.2-113.98-163.92-148.85-38.65-19.33-82.34-34.2-129.86-44.19-50.48-10.62-106.55-16-166.66-16h-1.92c-98.96,0-190.89-6.25-273.3-18.59-78.06-11.69-149.62-29.14-212.7-51.88-59.12-21.31-112.34-47.82-158.19-78.8-42.64-28.81-80.02-62.24-111.11-99.37-21.32-25.46-40.17-53.24-56.05-82.59-14.83-27.41-27.45-56.93-37.52-87.74-9.32-28.51-16.71-58.9-21.97-90.34-4.8-28.72-7.96-59.14-9.38-90.41-2.41-52.85-.08-108.74,7.11-170.86,6.14-53.05,14.83-101.62,21.81-140.65,7.53-42.09,13.48-75.34,12.7-94.22h.25c.78,18.89-5.17,52.15-12.71,94.26-6.98,39.02-15.67,87.59-21.81,140.63-7.19,62.11-9.51,117.99-7.1,170.82,1.42,31.26,4.58,61.67,9.38,90.38,5.25,31.43,12.64,61.81,21.96,90.31,10.07,30.79,22.69,60.3,37.5,87.7,15.86,29.33,34.71,57.1,56.02,82.54,31.08,37.11,68.44,70.52,111.06,99.32,45.83,30.97,99.03,57.47,158.13,78.78,63.06,22.73,134.6,40.18,212.65,51.87,82.39,12.33,174.32,18.59,273.26,18.59.64,0,1.28,0,1.92,0,60.13,0,116.22,5.38,166.72,16,47.54,10,91.25,24.87,129.92,44.21,69.77,34.89,124.95,85,164.02,148.95,58.76,96.16,69.33,203.63,67.85,276.85-.85,41.88-5.93,84.73-14.7,123.91-7.79,34.8-18.52,66.5-30.2,89.24Z"/><path class="cls-3" d="m1163.44,1744.42l-.22-.12c11.52-22.44,22.11-54.06,29.8-89.04,8.66-39.41,13.63-82.58,14.36-124.86,1.27-74.12-9.68-182.88-69.08-280.04-39.25-64.2-94.48-114.5-164.15-149.51-38.62-19.41-82.25-34.32-129.67-44.34-50.22-10.61-105.95-15.99-165.67-15.99-1.25,0-2.52,0-3.77,0-97.19,0-187.55-6.12-268.63-18.2-77.19-11.5-148.02-28.7-210.51-51.12-58.6-21.03-111.42-47.22-157-77.83-42.41-28.49-79.67-61.56-110.74-98.3-21.37-25.28-40.32-52.88-56.31-82.05-14.95-27.26-27.72-56.64-37.97-87.3-9.49-28.4-17.07-58.69-22.54-90.05-5-28.66-8.37-59.04-10.03-90.28-2.8-52.85-.91-108.86,5.78-171.23,5.72-53.33,14.07-102.54,20.78-142.08,7.37-43.42,13.19-77.72,12.36-97.83h.25c.83,20.13-4.99,54.44-12.36,97.87-6.71,39.54-15.06,88.74-20.78,142.06-6.69,62.35-8.58,118.35-5.78,171.19,1.66,31.23,5.03,61.6,10.03,90.25,5.47,31.34,13.05,61.62,22.53,90.01,10.24,30.65,23.01,60.01,37.95,87.26,15.98,29.16,34.92,56.75,56.28,82.01,31.05,36.72,68.29,69.78,110.68,98.25,45.56,30.6,98.36,56.77,156.94,77.8,62.47,22.42,133.28,39.62,210.46,51.11,81.07,12.07,171.42,18.19,268.6,18.19,1.25,0,2.51,0,3.77,0,59.74,0,115.48,5.38,165.72,15.99,47.44,10.02,91.09,24.95,129.73,44.36,69.71,35.02,124.98,85.36,164.25,149.6,59.44,97.22,70.4,206.02,69.12,280.18-.73,42.29-5.69,85.49-14.36,124.91-7.69,35-18.28,66.64-29.82,89.1Z"/><path class="cls-3" d="m1200.36,1729.32l-.22-.11c11.38-22.15,21.82-53.72,29.41-88.9,8.56-39.66,13.41-83.19,14.01-125.88,1.07-75.07-10.27-185.17-70.36-283.39-39.46-64.49-94.76-115.01-164.38-150.14-38.6-19.48-82.16-34.45-129.48-44.49-49.96-10.6-105.37-15.97-164.7-15.97-.56,0-1.11,0-1.67,0-1.29,0-2.6,0-3.9,0-95.45,0-184.25-5.99-264.03-17.81-76.33-11.31-146.43-28.26-208.33-50.39-58.09-20.76-110.51-46.62-155.81-76.87-42.18-28.17-79.31-60.89-110.35-97.25-21.43-25.11-40.47-52.54-56.58-81.55-15.06-27.12-27.98-56.36-38.4-86.9-9.65-28.29-17.42-58.5-23.09-89.77-5.19-28.61-8.78-58.94-10.66-90.17-7.2-119.38,10.98-232.5,24.25-315.1,7.18-44.67,12.85-79.96,11.97-101.3h.25c.88,21.35-4.79,56.65-11.97,101.33-13.27,82.59-31.45,195.69-24.25,315.05,1.88,31.21,5.47,61.54,10.66,90.14,5.67,31.26,13.44,61.45,23.08,89.74,10.41,30.53,23.32,59.75,38.38,86.86,16.1,28.99,35.13,56.41,56.55,81.51,31.03,36.35,68.13,69.05,110.3,97.2,45.28,30.24,97.68,56.09,155.75,76.84,61.89,22.12,131.96,39.06,208.28,50.37,79.76,11.82,168.56,17.81,263.99,17.81,1.3,0,2.6,0,3.9,0,.56,0,1.12,0,1.67,0,59.35,0,114.77,5.38,164.75,15.98,47.34,10.05,90.93,25.02,129.54,44.51,69.66,35.15,125,85.7,164.48,150.23,60.12,98.27,71.46,208.42,70.39,283.52-.61,42.71-5.46,86.25-14.02,125.93-7.59,35.19-18.05,66.78-29.43,88.96Z"/><path class="cls-3" d="m1237.28,1714.22l-.22-.12c11.23-21.86,21.54-53.38,29.03-88.75,8.45-39.92,13.18-83.8,13.67-126.9.86-76.02-10.86-187.48-71.63-286.75-39.66-64.78-95.04-115.5-164.6-150.76-38.57-19.55-82.07-34.56-129.29-44.62-49.7-10.59-104.78-15.96-163.72-15.96-.74,0-1.47,0-2.21,0-1.71,0-3.42,0-5.12,0-93.73,0-181-5.86-259.49-17.44-75.48-11.13-144.85-27.84-206.17-49.66-57.58-20.49-109.59-46.03-154.61-75.92-41.95-27.85-78.95-60.23-109.95-96.22-21.49-24.95-40.62-52.22-56.84-81.07-15.18-26.99-28.24-56.1-38.83-86.52-9.81-28.2-17.76-58.32-23.64-89.52-5.38-28.56-9.17-58.87-11.28-90.08-8.05-119.38,9.3-233.54,21.96-316.89,6.97-45.85,12.47-82.07,11.54-104.61h.25c.93,22.56-4.57,58.79-11.54,104.65-12.66,83.34-30.01,197.48-21.96,316.84,2.1,31.2,5.9,61.5,11.27,90.05,5.87,31.19,13.82,61.3,23.63,89.49,10.58,30.41,23.63,59.51,38.81,86.48,16.22,28.84,35.33,56.1,56.81,81.03,30.99,35.97,67.97,68.33,109.9,96.17,45,29.88,97,55.41,154.56,75.9,61.31,21.82,130.65,38.52,206.12,49.65,78.47,11.57,165.74,17.43,259.45,17.43,1.71,0,3.41,0,5.12,0,.74,0,1.48,0,2.21,0,58.96,0,114.05,5.37,163.77,15.96,47.24,10.07,90.76,25.09,129.35,44.65,69.6,35.28,125.02,86.03,164.7,150.85,60.8,99.32,72.53,210.83,71.67,286.88-.49,43.12-5.22,87.02-13.68,126.95-7.49,35.39-17.81,66.93-29.05,88.81Z"/><path class="cls-3" d="m1274.2,1699.12l-.22-.12c11.08-21.57,21.25-53.04,28.64-88.6,8.35-40.18,12.95-84.42,13.33-127.93.66-76.99-11.46-189.82-72.91-290.13-39.86-65.06-95.31-115.99-164.81-151.37-38.54-19.62-81.98-34.68-129.1-44.76-49.45-10.58-104.2-15.94-162.76-15.94-.92,0-1.82,0-2.74,0-2.11,0-4.22,0-6.33,0-92.04,0-177.79-5.74-255.01-17.07-74.63-10.95-143.27-27.42-204.01-48.95-57.06-20.22-108.68-45.46-153.42-74.99-41.72-27.54-78.57-59.57-109.54-95.2-21.55-24.79-40.76-51.91-57.11-80.62-15.3-26.86-28.5-55.86-39.24-86.17-9.96-28.11-18.1-58.16-24.17-89.3-5.56-28.52-9.55-58.8-11.88-90.01-8.88-119.4,7.64-234.58,19.71-318.69,6.73-46.95,12.05-84.03,11.07-107.78h.25c.98,23.76-4.34,60.85-11.08,107.81-12.06,84.09-28.58,199.26-19.71,318.63,2.32,31.2,6.31,61.47,11.87,89.98,6.07,31.13,14.2,61.16,24.16,89.26,10.74,30.3,23.94,59.28,39.23,86.13,16.33,28.69,35.54,55.8,57.08,80.58,30.95,35.61,67.79,67.62,109.49,95.15,44.72,29.53,96.32,54.75,153.36,74.97,60.72,21.52,129.35,37.99,203.97,48.94,77.2,11.33,162.96,17.07,254.97,17.07,2.11,0,4.21,0,6.32,0,59.61-.17,115.32,5.19,165.55,15.94,47.14,10.09,90.6,25.15,129.17,44.78,69.55,35.4,125.03,86.36,164.91,151.46,61.48,100.37,73.6,213.24,72.95,290.26-.37,43.53-4.98,87.79-13.33,127.98-7.39,35.58-17.57,67.07-28.66,88.67Z"/><path class="cls-3" d="m1311.12,1684.02l-.22-.11c10.93-21.28,20.96-52.69,28.24-88.45,8.24-40.44,12.73-85.04,12.98-128.97.45-77.96-12.06-192.17-74.19-293.53-40.05-65.34-95.57-116.46-165.02-151.95-38.52-19.68-81.89-34.78-128.91-44.88-49.2-10.57-103.63-15.92-161.81-15.92-1.08,0-2.17,0-3.25,0-93.22.33-180.03-5.3-258.08-16.7-73.79-10.78-141.71-27.01-201.87-48.25-56.55-19.96-107.77-44.89-152.22-74.08-41.48-27.24-78.2-58.93-109.12-94.19-21.61-24.64-40.92-51.62-57.37-80.19-15.41-26.75-28.75-55.63-39.66-85.84-10.12-28.03-18.42-58.01-24.69-89.1-5.74-28.48-9.93-58.75-12.46-89.96-9.69-119.45,6.01-235.65,17.48-320.49C-12.58,13.43-7.45-24.47-8.48-49.39h.25c1.03,24.93-4.09,62.83-10.58,110.82-11.46,84.83-27.16,201.02-17.48,320.44,2.53,31.2,6.72,61.45,12.46,89.93,6.26,31.08,14.56,61.04,24.68,89.06,10.9,30.2,24.24,59.07,39.64,85.8,16.45,28.55,35.74,55.52,57.34,80.15,30.91,35.24,67.6,66.92,109.07,94.15,44.44,29.18,95.63,54.09,152.17,74.05,60.15,21.23,128.05,37.46,201.83,48.24,75.94,11.09,160.2,16.71,250.55,16.71,2.49,0,4.99,0,7.49-.01,1.08,0,2.17,0,3.26,0,58.21,0,112.65,5.36,161.86,15.93,47.04,10.1,90.44,25.21,128.97,44.91,69.49,35.51,125.05,86.67,165.12,152.04,62.16,101.41,74.67,215.67,74.23,293.66-.25,43.95-4.74,88.57-12.99,129.02-7.29,35.78-17.33,67.22-28.26,88.52Z"/><path class="cls-3" d="m1348.04,1668.91l-.22-.12c10.78-20.98,20.67-52.34,27.85-88.3,8.13-40.71,12.5-85.67,12.63-130.02.16-52.05-5.34-102.41-16.36-149.67-12.68-54.44-32.57-103.99-59.11-147.26-40.24-65.6-95.83-116.92-165.22-152.52-38.49-19.75-81.79-34.89-128.72-45-50.01-10.78-105.41-16.11-164.63-15.89-92,.37-177.73-5.13-254.85-16.34-72.96-10.6-140.16-26.6-199.74-47.56-56.04-19.71-106.85-44.33-151.02-73.18-41.24-26.94-77.81-58.3-108.68-93.2-21.67-24.5-41.07-51.35-57.64-79.78-15.52-26.64-29-55.42-40.06-85.54-10.27-27.96-18.75-57.88-25.2-88.92-5.91-28.46-10.3-58.71-13.04-89.93-4.65-53.01-4.79-109.72-.43-173.39,3.75-54.77,10.1-104.8,15.71-148.94,6.21-48.92,11.12-87.57,10.05-113.64h.25c1.08,26.08-3.83,64.74-10.05,113.67-5.61,44.13-11.96,94.16-15.71,148.92-4.36,63.65-4.22,120.35.43,173.35,2.74,31.2,7.12,61.45,13.03,89.9,6.45,31.03,14.92,60.94,25.19,88.89,11.06,30.11,24.53,58.88,40.04,85.5,16.56,28.42,35.95,55.25,57.61,79.75,30.86,34.89,67.41,66.23,108.63,93.16,44.15,28.84,94.94,53.45,150.97,73.15,59.57,20.95,126.76,36.94,199.7,47.55,74.69,10.86,157.47,16.35,246.18,16.35,2.87,0,5.75,0,8.63-.02,1.25,0,2.51,0,3.76,0,57.84,0,111.96,5.35,160.93,15.91,46.95,10.12,90.28,25.27,128.78,45.03,69.44,35.62,125.06,86.97,165.32,152.62,26.56,43.3,46.46,92.87,59.14,147.34,11.01,47.29,16.52,97.66,16.36,149.73-.13,44.37-4.5,89.34-12.64,130.07-7.19,35.98-17.08,67.37-27.87,88.37Z"/><path class="cls-3" d="m1384.96,1653.81l-.22-.12c19.75-38.47,39.7-121.18,39.74-219.24.02-52.64-5.65-103.57-16.84-151.36-12.91-55.13-33.07-105.26-59.91-149-40.43-65.87-96.08-117.37-165.42-153.08-38.46-19.81-81.7-34.99-128.53-45.12-48.7-10.54-102.49-15.88-159.94-15.88-1.42,0-2.84,0-4.26,0-90.78.42-175.45-4.96-251.65-15.99-72.12-10.43-138.61-26.21-197.62-46.88-55.53-19.46-105.94-43.78-149.82-72.29-41-26.64-77.42-57.67-108.24-92.22-21.74-24.37-41.22-51.08-57.91-79.4-15.63-26.54-29.25-55.22-40.47-85.26-10.42-27.9-19.06-57.76-25.7-88.77-6.09-28.44-10.66-58.69-13.6-89.92-5-53.07-5.52-109.95-1.6-173.89,3.37-55.07,9.4-105.66,14.71-150.28,5.93-49.8,10.62-89.13,9.5-116.33h.25c1.12,27.21-3.56,66.55-9.5,116.36-5.32,44.62-11.34,95.2-14.71,150.27-3.91,63.93-3.39,120.8,1.6,173.86,2.94,31.22,7.51,61.46,13.6,89.89,6.63,30.99,15.28,60.85,25.69,88.73,11.21,30.03,24.82,58.7,40.45,85.22,16.68,28.3,36.15,55,57.88,79.36,30.81,34.53,67.21,65.55,108.19,92.18,43.86,28.5,94.25,52.82,149.77,72.26,58.99,20.67,125.47,36.44,197.58,46.87,73.46,10.63,154.78,16.01,241.87,16.01,3.24,0,6.49,0,9.75-.02,1.42,0,2.85,0,4.26,0,57.47,0,111.28,5.34,160,15.88,46.85,10.14,90.11,25.33,128.59,45.14,69.38,35.73,125.07,87.27,165.52,153.17,26.86,43.76,47.03,93.92,59.94,149.08,11.2,47.81,16.86,98.75,16.84,151.42-.04,98.1-20,180.85-39.77,219.35Z"/><path class="cls-3" d="m1421.88,1638.71l-.22-.11c19.57-38.11,39.21-120.96,38.99-220.15-.12-53.25-5.95-104.74-17.32-153.06-13.14-55.83-33.57-106.54-60.72-150.75-40.61-66.12-96.33-117.81-165.61-153.62-38.43-19.87-81.61-35.08-128.33-45.23-48.45-10.52-101.93-15.85-159.02-15.85-1.59,0-3.17,0-4.76.01-3.61.02-7.23.03-10.83.03-85.5,0-165.39-5.27-237.65-15.67-71.3-10.27-137.08-25.82-195.51-46.21-55.03-19.21-105.03-43.24-148.62-71.42-40.76-26.35-77.02-57.05-107.79-91.26-21.8-24.24-41.38-50.84-58.17-79.04-15.75-26.44-29.5-55.04-40.86-85.01-10.56-27.84-19.37-57.66-26.19-88.64-6.25-28.42-11.02-58.68-14.16-89.94-5.34-53.14-6.24-110.2-2.76-174.43,3-55.38,8.7-106.52,13.72-151.63,5.41-48.59,10.09-90.55,8.92-118.85h.25c1.17,28.31-3.51,70.28-8.92,118.88-5.03,45.11-10.72,96.25-13.72,151.62-3.48,64.22-2.58,121.27,2.76,174.39,3.14,31.24,7.9,61.49,14.15,89.91,6.81,30.96,15.62,60.77,26.18,88.6,11.36,29.95,25.11,58.54,40.85,84.97,16.79,28.19,36.35,54.77,58.15,79,30.75,34.18,67,64.87,107.74,91.21,43.57,28.17,93.56,52.19,148.56,71.39,58.42,20.39,124.18,35.94,195.47,46.2,75.28,10.84,158.87,16.1,248.44,15.64,1.59,0,3.18-.01,4.76-.01,57.11,0,110.6,5.33,159.07,15.86,46.75,10.15,89.95,25.38,128.4,45.25,69.32,35.84,125.08,87.55,165.71,153.71,27.17,44.23,47.6,94.97,60.75,150.82,11.38,48.33,17.21,99.85,17.33,153.11.22,99.23-19.43,182.13-39.02,220.27Z"/><path class="cls-3" d="m1458.79,1623.61l-.22-.12c10.31-20.08,19.78-51.29,26.65-87.86,7.8-41.54,11.81-87.61,11.59-133.22-.26-53.85-6.25-105.92-17.8-154.76-13.37-56.52-34.07-107.83-61.52-152.5-40.79-66.37-96.57-118.23-165.8-154.15-38.4-19.92-81.51-35.17-128.14-45.33-49.69-10.83-104.65-16.13-163.35-15.81-3.97.02-7.94.03-11.88.03-83.92,0-162.39-5.15-233.44-15.34-70.48-10.1-135.55-25.43-193.41-45.56-54.52-18.96-104.12-42.7-147.41-70.56-40.51-26.06-76.62-56.45-107.32-90.3-21.87-24.12-41.54-50.6-58.45-78.7-15.86-26.35-29.74-54.88-41.26-84.78-10.71-27.79-19.68-57.58-26.68-88.53-6.42-28.42-11.37-58.69-14.7-89.97-5.67-53.22-6.95-110.47-3.9-175,2.63-55.69,8-107.38,12.74-152.99,5.12-49.28,9.54-91.84,8.33-121.2h.25c1.21,29.37-3.21,71.94-8.33,121.22-4.74,45.6-10.1,97.29-12.74,152.98-3.05,64.52-1.77,121.75,3.9,174.97,3.33,31.27,8.28,61.53,14.7,89.94,6.99,30.94,15.96,60.72,26.67,88.5,11.51,29.89,25.39,58.4,41.24,84.74,16.9,28.09,36.56,54.55,58.42,78.66,30.68,33.84,66.78,64.21,107.27,90.26,43.28,27.84,92.86,51.57,147.36,70.53,57.85,20.12,122.9,35.44,193.37,45.54,71.03,10.18,149.5,15.34,233.4,15.34,3.95,0,7.91-.01,11.88-.03,58.73-.34,113.69,4.98,163.4,15.81,46.65,10.16,89.79,25.42,128.2,45.36,69.27,35.94,125.08,87.83,165.9,154.24,27.47,44.69,48.18,96.03,61.55,152.57,11.56,48.86,17.55,100.95,17.81,154.82.22,45.62-3.79,91.71-11.59,133.27-6.87,36.59-16.35,67.82-26.67,87.92Z"/><path class="cls-3" d="m1495.71,1608.51l-.22-.12c10.16-19.78,19.48-50.93,26.24-87.71,7.69-41.83,11.58-88.27,11.24-134.3-.4-54.46-6.55-107.11-18.28-156.48-13.6-57.22-34.57-109.12-62.32-154.26-40.97-66.61-96.81-118.65-165.98-154.66-38.37-19.97-81.41-35.26-127.95-45.43-47.96-10.48-100.82-15.79-157.19-15.79-1.91,0-3.81,0-5.73.02-87.23.55-168.71-4.48-242.2-14.97-69.66-9.94-134.03-25.05-191.32-44.91-54.01-18.72-103.2-42.17-146.21-69.71-40.27-25.78-76.22-55.85-106.85-89.36-21.94-24.01-41.7-50.38-58.72-78.39-15.97-26.27-29.98-54.73-41.65-84.57-10.85-27.75-19.99-57.51-27.16-88.45-6.58-28.42-11.71-58.71-15.24-90.03-6-53.32-7.64-110.76-5.02-175.61,2.27-56.02,7.31-108.26,11.76-154.36,4.81-49.89,8.97-92.98,7.72-123.37h.25c1.25,30.4-2.91,73.49-7.72,123.39-4.45,46.09-9.49,98.34-11.76,154.34-2.62,64.83-.98,122.27,5.02,175.57,3.52,31.31,8.65,61.59,15.23,90,7.17,30.93,16.3,60.68,27.15,88.42,11.66,29.83,25.67,58.27,41.63,84.53,17.01,27.99,36.76,54.35,58.69,78.35,30.62,33.5,66.55,63.55,106.8,89.32,42.99,27.52,92.16,50.97,146.16,69.68,57.28,19.85,121.63,34.96,191.28,44.9,73.48,10.49,154.96,15.52,242.16,14.97,1.91-.01,3.82-.02,5.73-.02,56.39,0,109.26,5.31,157.25,15.8,46.56,10.18,89.62,25.47,128.01,45.45,69.21,36.03,125.09,88.1,166.08,154.75,27.77,45.16,48.75,97.08,62.35,154.33,11.74,49.39,17.89,102.05,18.29,156.54.34,46.04-3.55,92.5-11.25,134.35-6.77,36.8-16.1,67.97-26.27,87.78Z"/><path class="cls-3" d="m1532.63,1593.41l-.22-.11c10-19.48,19.18-50.57,25.83-87.55,7.58-42.12,11.35-88.94,10.89-135.39-.54-55.08-6.86-108.31-18.77-158.21-13.83-57.92-35.07-110.42-63.13-156.02-41.14-66.85-97.04-119.05-166.16-155.16-38.33-20.03-81.32-35.34-127.75-45.53-49.48-10.85-104.15-16.15-162.5-15.74-86.05.6-166.49-4.33-239.09-14.65-68.85-9.78-132.52-24.68-189.24-44.27-53.51-18.48-102.29-41.66-145-68.87-40.02-25.5-75.81-55.25-106.37-88.44-22.01-23.9-41.87-50.17-59-78.09-16.08-26.2-30.23-54.59-42.04-84.38-10.99-27.71-20.29-57.45-27.63-88.39-6.75-28.43-12.05-58.75-15.76-90.11-6.33-53.43-8.33-111.08-6.12-176.26,1.91-56.35,6.62-109.15,10.79-155.74,4.5-50.43,8.39-93.98,7.1-125.35h.25c1.29,31.38-2.6,74.94-7.1,125.37-4.16,46.59-8.88,99.39-10.78,155.73-2.21,65.16-.21,122.8,6.12,176.22,3.71,31.36,9.01,61.67,15.76,90.08,7.34,30.92,16.63,60.65,27.62,88.36,11.81,29.78,25.95,58.16,42.02,84.35,17.13,27.9,36.97,54.16,58.97,78.05,30.55,33.17,66.32,62.91,106.32,88.39,42.69,27.2,91.46,50.37,144.95,68.84,56.71,19.59,120.36,34.48,189.2,44.26,72.58,10.31,153.02,15.24,239.06,14.64,58.37-.4,113.05,4.89,162.55,15.75,46.46,10.19,89.46,25.51,127.82,45.55,69.15,36.13,125.09,88.36,166.25,155.25,28.08,45.62,49.33,98.14,63.16,156.09,11.92,49.91,18.23,103.16,18.77,158.26.46,46.47-3.31,93.3-10.89,135.44-6.66,37-15.84,68.12-25.86,87.62Z"/><path class="cls-3" d="m1569.55,1578.31l-.22-.12c18.21-35.46,37.23-120.65,35.96-223.89-.68-55.7-7.16-109.52-19.25-159.94-14.06-58.63-35.57-111.71-63.93-157.78-41.31-67.08-97.27-119.45-166.33-155.64-38.3-20.08-81.22-35.42-127.56-45.61-49.37-10.86-103.91-16.14-162.07-15.7-84.91.64-164.3-4.18-236.01-14.33-68.04-9.63-131.02-24.31-187.17-43.65-53-18.25-101.38-41.14-143.8-68.04-39.77-25.22-75.39-54.67-105.88-87.52-22.09-23.8-42.03-49.98-59.28-77.82-16.19-26.13-30.47-54.47-42.43-84.22-11.13-27.69-20.58-57.42-28.1-88.36-6.91-28.44-12.39-58.8-16.29-90.22-14.96-120.52-5.21-238.94,2.61-334.09,4.19-50.88,7.8-94.83,6.47-127.14h.25c1.33,32.32-2.28,76.27-6.47,127.16-7.83,95.14-17.57,213.54-2.61,334.04,3.9,31.41,9.38,61.75,16.28,90.19,7.51,30.93,16.96,60.65,28.09,88.32,11.96,29.74,26.23,58.06,42.41,84.19,17.24,27.82,37.17,53.99,59.25,77.78,30.47,32.83,66.08,62.27,105.83,87.48,42.4,26.89,90.76,49.78,143.74,68.02,56.14,19.33,119.1,34.01,187.13,43.64,71.7,10.14,151.1,14.97,235.97,14.32,58.19-.44,112.73,4.85,162.13,15.71,46.36,10.2,89.3,25.55,127.62,45.64,69.1,36.22,125.09,88.61,166.42,155.73,28.38,46.09,49.9,99.2,63.96,157.85,12.09,50.44,18.57,104.27,19.26,160,1.27,103.28-17.77,188.52-35.99,224.01Z"/><path class="cls-3" d="m1606.47,1563.2l-.22-.11c9.55-18.59,18.66-50.39,25.01-87.25,7.36-42.72,10.88-90.3,10.19-137.59-.83-56.33-7.46-110.73-19.73-161.69-14.29-59.34-36.07-113.02-64.74-159.55-41.48-67.31-97.49-119.83-166.49-156.11-38.27-20.12-81.12-35.5-127.36-45.7-49.27-10.87-103.66-16.14-161.65-15.67-83.74.69-162.12-4.03-232.95-14.01-67.24-9.47-129.52-23.95-185.11-43.03-52.5-18.02-100.47-40.64-142.59-67.23-39.51-24.95-74.97-54.09-105.38-86.61-22.17-23.71-42.21-49.8-59.57-77.57-16.31-26.08-30.71-54.37-42.82-84.09-11.27-27.67-20.88-57.39-28.56-88.35-7.06-28.47-12.72-58.87-16.8-90.35-15.66-120.79-6.66-240.25.58-336.24,3.86-51.26,7.2-95.52,5.83-128.73h.25c1.37,33.21-1.97,77.49-5.83,128.75-7.24,95.98-16.24,215.42-.58,336.19,4.08,31.47,9.73,61.86,16.79,90.32,7.68,30.94,17.28,60.66,28.55,88.31,12.1,29.71,26.5,57.99,42.8,84.05,17.35,27.75,37.38,53.83,59.54,77.53,30.4,32.51,65.83,61.63,105.33,86.57,42.1,26.58,90.06,49.19,142.54,67.21,55.57,19.08,117.84,33.55,185.07,43.02,70.82,9.98,149.19,14.7,232.92,14.01,2.38-.02,4.76-.03,7.13-.03,55.34,0,107.31,5.28,154.57,15.7,46.26,10.2,89.14,25.59,127.42,45.72,69.04,36.3,125.09,88.85,166.59,156.2,28.69,46.55,50.48,100.26,64.77,159.62,12.27,50.97,18.91,105.39,19.74,161.74.69,47.31-2.83,94.9-10.19,137.64-6.35,36.88-15.48,68.71-25.04,87.32Z"/><path class="cls-3" d="m1643.39,1548.1l-.22-.11c9.39-18.29,18.36-50.03,24.6-87.1,7.25-43.03,10.65-90.99,9.83-138.71-.97-56.96-7.77-111.96-20.22-163.44-14.52-60.05-36.57-114.33-65.55-161.32-41.64-67.53-97.71-120.2-166.65-156.56-38.23-20.17-81.02-35.57-127.17-45.77-49.16-10.87-103.41-16.13-161.23-15.62-82.62.72-159.96-3.89-229.92-13.7-66.45-9.32-128.04-23.59-183.06-42.42-52-17.79-99.56-40.14-141.38-66.43-39.26-24.68-74.55-53.52-104.87-85.72-22.25-23.62-42.38-49.64-59.86-77.34-16.42-26.02-30.96-54.28-43.21-83.98-11.41-27.66-21.17-57.39-29.02-88.37-7.22-28.5-13.04-58.95-17.3-90.51-16.36-121.1-8.08-241.62-1.43-338.47,3.54-51.55,6.6-96.07,5.19-130.11h.25c1.4,34.05-1.65,78.57-5.2,130.13-6.65,96.83-14.93,217.34,1.43,338.42,4.26,31.55,10.08,61.99,17.3,90.48,7.84,30.96,17.6,60.68,29.01,88.33,12.25,29.68,26.78,57.93,43.19,83.94,17.47,27.69,37.6,53.69,59.83,77.3,30.31,32.18,65.58,61.01,104.83,85.68,41.8,26.28,89.35,48.62,141.33,66.41,55.01,18.82,116.58,33.09,183.01,42.41,69.94,9.81,147.29,14.42,229.88,13.7,2.53-.02,5.07-.03,7.59-.03,55,0,106.66,5.26,153.69,15.66,46.17,10.21,88.98,25.62,127.23,45.8,68.98,36.38,125.08,89.09,166.75,156.65,28.99,47.01,51.05,101.32,65.58,161.4,12.45,51.51,19.26,106.51,20.22,163.5.81,47.73-2.59,95.71-9.84,138.75-6.25,37.09-15.22,68.86-24.62,87.17Z"/><path class="cls-3" d="m1680.31,1533l-.22-.11c18.22-35.48,35.63-124.76,33.66-226.77-1.11-57.6-8.08-113.19-20.7-165.21-14.75-60.77-37.08-115.65-66.36-163.1-41.8-67.74-97.92-120.56-166.8-157-38.2-20.21-80.92-35.63-126.97-45.84-49.06-10.88-103.17-16.12-160.8-15.58-5.89.05-11.77.08-17.61.08-74.88,0-145.21-4.53-209.29-13.48-65.65-9.17-126.56-23.25-181.02-41.83-51.5-17.57-98.66-39.65-140.17-65.64-39-24.42-74.12-52.96-104.36-84.84-22.33-23.53-42.57-49.48-60.16-77.13-16.53-25.98-31.2-54.21-43.59-83.89-11.55-27.66-21.47-57.4-29.48-88.41-7.37-28.54-13.37-59.05-17.81-90.69-17.05-121.44-9.49-243.06-3.42-340.77,3.21-51.75,5.99-96.45,4.56-131.27h.25c1.44,34.83-1.34,79.53-4.56,131.28-6.07,97.71-13.62,219.31,3.42,340.72,4.44,31.63,10.43,62.13,17.8,90.66,8.01,31,17.92,60.73,29.47,88.38,12.39,29.67,27.05,57.88,43.58,83.85,17.58,27.63,37.81,53.57,60.13,77.09,30.23,31.87,65.32,60.4,104.31,84.8,41.5,25.98,88.64,48.05,140.12,65.62,54.45,18.58,115.34,32.64,180.97,41.81,69.07,9.65,145.4,14.17,226.87,13.4,57.68-.54,111.79,4.71,160.86,15.59,46.07,10.22,88.81,25.65,127.03,45.87,68.92,36.46,125.08,89.32,166.9,157.09,29.3,47.48,51.63,102.38,66.39,163.17,12.63,52.04,19.6,107.64,20.71,165.26.93,48.15-2.35,96.52-9.48,139.87-6.14,37.3-14.96,69.02-24.2,87.02Z"/><path class="cls-3" d="m1717.23,1517.9l-.22-.12c9.07-17.67,17.73-49.3,23.76-86.79,7.02-43.65,10.17-92.4,9.13-140.96-1.25-58.25-8.38-114.43-21.19-166.98-14.98-61.49-37.58-116.97-67.17-164.88-41.96-67.95-98.13-120.92-166.95-157.43-38.17-20.25-80.82-35.7-126.77-45.91-48.95-10.88-102.9-16.1-160.39-15.54-80.36.79-155.69-3.61-223.91-13.1-64.86-9.03-125.08-22.9-178.99-41.24-51-17.35-97.75-39.17-138.96-64.86-38.75-24.15-73.68-52.41-103.84-83.97-22.41-23.46-42.75-49.35-60.46-76.94-16.65-25.94-31.45-54.15-43.98-83.83-11.69-27.66-21.76-57.43-29.93-88.48-7.53-28.59-13.69-59.17-18.3-90.9-17.73-121.82-10.89-244.55-5.39-343.17,2.89-51.87,5.39-96.66,3.92-132.19h.25c1.46,35.54-1.03,80.34-3.92,132.21-5.49,98.61-12.33,221.33,5.39,343.12,4.62,31.72,10.77,62.29,18.3,90.88,8.17,31.04,18.24,60.8,29.92,88.45,12.53,29.67,27.33,57.86,43.96,83.79,17.7,27.58,38.03,53.46,60.43,76.91,30.14,31.55,65.06,59.79,103.79,83.93,41.2,25.68,87.94,47.5,138.91,64.84,53.89,18.33,114.09,32.2,178.94,41.23,62.95,8.76,131.98,13.19,205.41,13.19,6.13,0,12.28-.03,18.46-.09,2.84-.03,5.68-.04,8.5-.04,54.32,0,105.39,5.24,151.94,15.58,45.98,10.22,88.65,25.68,126.84,45.94,68.86,36.54,125.07,89.53,167.05,157.52,29.6,47.94,52.21,103.44,67.2,164.95,12.81,52.57,19.94,108.77,21.19,167.04,1.05,48.58-2.11,97.33-9.13,141-6.03,37.51-14.7,69.17-23.78,86.87Z"/><path class="cls-3" d="m1754.15,1502.8l-.22-.12c8.92-17.36,17.42-48.94,23.34-86.63,4.81-30.67,10.24-80.21,8.77-142.1-1.4-58.89-8.69-115.68-21.67-168.77-15.21-62.21-38.08-118.29-67.98-166.67-42.11-68.15-98.33-121.26-167.1-157.85-38.13-20.29-80.72-35.75-126.58-45.98-48.85-10.88-102.67-16.1-159.97-15.49-6.46.07-12.9.1-19.3.1-72.03,0-139.77-4.33-201.64-12.91-64.08-8.88-123.62-22.56-176.96-40.66-50.5-17.13-96.84-38.69-137.76-64.09-38.49-23.9-73.25-51.86-103.31-83.11-22.5-23.39-42.94-49.22-60.77-76.78-16.76-25.92-31.69-54.11-44.38-83.8-11.82-27.68-22.05-57.48-30.38-88.58-7.68-28.65-14-59.32-18.79-91.15-18.4-122.24-12.27-246.12-7.35-345.67,2.57-51.89,4.78-96.7,3.29-132.88h.25c1.49,36.18-.73,81-3.29,132.89-4.92,99.53-11.05,223.4,7.34,345.62,4.79,31.82,11.11,62.48,18.79,91.12,8.33,31.09,18.55,60.88,30.37,88.55,12.68,29.67,27.6,57.86,44.36,83.76,17.82,27.55,38.25,53.37,60.74,76.75,30.05,31.24,64.79,59.19,103.26,83.07,40.9,25.39,87.23,46.95,137.71,64.07,53.33,18.09,112.85,31.77,176.92,40.65,61.85,8.57,129.59,12.91,201.6,12.91,6.4,0,12.83-.03,19.3-.1,2.99-.03,5.97-.05,8.95-.05,53.98,0,104.77,5.22,151.08,15.54,45.88,10.23,88.49,25.7,126.64,46,68.81,36.61,125.06,89.75,167.19,157.94,29.91,48.4,52.79,104.5,68,166.74,12.99,53.11,20.28,109.91,21.68,168.82,1.47,61.91-3.96,111.46-8.78,142.14-5.92,37.72-14.44,69.33-23.36,86.71Z"/><path class="cls-3" d="m1791.07,1487.7l-.22-.11c8.75-17.05,17.11-48.57,22.91-86.48,4.73-30.89,10.03-80.82,8.42-143.24-1.54-59.55-9-116.93-22.15-170.56-15.44-62.94-38.59-119.62-68.78-168.46-42.26-68.35-98.53-121.59-167.24-158.25-38.09-20.32-80.61-35.81-126.38-46.03-48.74-10.89-102.42-16.08-159.55-15.44-6.73.08-13.44.11-20.1.11-70.63,0-137.11-4.24-197.89-12.63-63.3-8.74-122.16-22.23-174.95-40.09-50-16.92-95.94-38.23-136.55-63.34-38.23-23.64-72.81-51.32-102.78-82.27-22.59-23.33-43.14-49.11-61.09-76.64-16.88-25.9-31.94-54.09-44.77-83.79-11.96-27.7-22.33-57.55-30.83-88.72-7.83-28.72-14.32-59.48-19.28-91.42-19.07-122.7-13.64-247.77-9.28-348.27,2.25-51.81,4.19-96.56,2.67-133.3h.25c1.51,36.75-.43,81.5-2.67,133.32-4.36,100.48-9.78,225.54,9.28,348.22,4.96,31.93,11.45,62.68,19.28,91.39,8.5,31.16,18.87,60.99,30.82,88.68,12.82,29.69,27.88,57.87,44.75,83.75,17.94,27.52,38.48,53.29,61.06,76.61,29.95,30.93,64.52,58.6,102.73,82.23,40.59,25.1,86.52,46.4,136.5,63.31,52.77,17.85,111.62,31.34,174.91,40.08,66.5,9.18,139.83,13.4,217.95,12.52,57.15-.64,110.85,4.56,159.61,15.45,45.79,10.23,88.33,25.72,126.44,46.06,68.75,36.68,125.04,89.95,167.33,158.34,30.21,48.86,53.36,105.56,68.81,168.53,13.16,53.64,20.62,111.05,22.16,170.61,1.62,62.44-3.69,112.38-8.42,143.28-5.81,37.94-14.17,69.49-22.94,86.56Z"/><path class="cls-3" d="m1827.98,1472.6l-.22-.11c17.01-33.13,33.5-125.25,30.55-230.72-1.69-60.21-9.3-118.2-22.64-172.36-15.68-63.67-39.09-120.95-69.6-170.25-20.35-32.88-44.13-62.58-70.68-88.26-28.63-27.69-61.16-51.37-96.69-70.37-38.06-20.36-80.51-35.86-126.18-46.09-48.63-10.89-102.19-16.07-159.14-15.39-77.04.92-149.4-3.2-215.06-12.24-62.53-8.6-120.72-21.9-172.95-39.53-49.5-16.71-95.04-37.77-135.34-62.59-37.97-23.39-72.37-50.79-102.24-81.43-22.68-23.27-43.35-49.02-61.41-76.53-17-25.89-32.2-54.09-45.16-83.82-12.1-27.74-22.62-57.64-31.28-88.88-7.98-28.8-14.63-59.66-19.76-91.72-19.72-123.21-15-249.5-11.2-350.98,1.93-51.64,3.6-96.23,2.07-133.46h.25c1.53,37.23-.14,81.83-2.07,133.47-3.8,101.47-8.53,227.75,11.19,350.93,5.13,32.06,11.78,62.91,19.76,91.7,8.66,31.23,19.18,61.12,31.27,88.85,12.96,29.72,28.15,57.9,45.14,83.78,18.06,27.5,38.71,53.23,61.38,76.49,29.86,30.63,64.24,58.01,102.19,81.39,40.29,24.82,85.81,45.87,135.29,62.57,52.22,17.62,110.39,30.92,172.9,39.52,65.65,9.03,137.98,13.14,215.02,12.24,56.97-.67,110.54,4.5,159.2,15.4,45.69,10.23,88.17,25.74,126.25,46.11,35.55,19.02,68.1,42.71,96.75,70.42,26.57,25.7,50.36,55.41,70.72,88.31,30.52,49.32,53.94,106.62,69.62,170.32,13.34,54.18,20.96,112.19,22.65,172.41,2.96,105.5-13.55,197.68-30.58,230.84Z"/><path class="cls-3" d="m1864.9,1457.49l-.22-.11c8.43-16.42,16.47-47.83,22.06-86.17,4.57-31.36,9.61-82.07,7.7-145.55-1.83-60.87-9.61-119.47-23.12-174.17-15.91-64.4-39.59-122.29-70.41-172.04-20.42-32.98-44.25-62.75-70.82-88.49-28.65-27.75-61.18-51.48-96.68-70.52-38.02-20.39-80.41-35.91-125.98-46.13-48.53-10.89-101.95-16.05-158.73-15.34-75.96.95-147.33-3.08-212.15-11.96-61.76-8.47-119.28-21.58-170.96-38.98-49.01-16.5-94.14-37.31-134.14-61.86-37.71-23.14-71.92-50.27-101.69-80.61-22.78-23.22-43.56-48.94-61.75-76.44-17.12-25.88-32.45-54.1-45.56-83.87-12.24-27.78-22.91-57.75-31.73-89.08-8.13-28.89-14.94-59.86-20.24-92.07-9.07-55.1-14.12-115.36-15.43-184.23-1.14-59.96.71-118.2,2.33-169.59,1.63-51.35,3.03-95.71,1.48-133.33h.25c1.55,37.62.15,81.97-1.48,133.33-1.63,51.38-3.47,109.63-2.33,169.58,1.31,68.86,6.35,129.11,15.42,184.2,5.3,32.2,12.11,63.16,20.24,92.04,8.81,31.32,19.49,61.28,31.72,89.04,13.11,29.75,28.43,57.96,45.54,83.83,18.18,27.49,38.95,53.19,61.72,76.41,29.75,30.33,63.95,57.44,101.64,80.57,39.98,24.54,85.09,45.34,134.08,61.84,51.67,17.39,109.17,30.5,170.91,38.97,64.81,8.88,136.17,12.91,212.12,11.96,56.82-.71,110.24,4.45,158.79,15.34,45.6,10.23,88,25.76,126.05,46.16,35.52,19.05,68.07,42.79,96.74,70.56,26.59,25.76,50.43,55.54,70.86,88.54,30.82,49.78,54.52,107.69,70.44,172.12,13.51,54.72,21.3,113.33,23.13,174.22,1.91,63.5-3.14,114.23-7.71,145.6-5.59,38.37-13.64,69.8-22.08,86.25Z"/><path class="cls-3" d="m1901.82,1442.39l-.22-.11c8.27-16.1,16.15-47.45,21.63-86.01,4.49-31.6,9.4-82.7,7.35-146.72-1.98-61.54-9.92-120.75-23.61-175.99-16.14-65.14-40.1-123.63-71.22-173.84-20.49-33.07-44.37-62.92-70.96-88.71-28.67-27.82-61.2-51.59-96.67-70.66-37.98-20.42-80.3-35.96-125.79-46.18-48.42-10.88-101.71-16.03-158.32-15.28-74.87.98-145.29-2.95-209.27-11.69-60.99-8.33-117.84-21.26-168.97-38.43-48.52-16.29-93.24-36.86-132.93-61.14-37.44-22.9-71.47-49.75-101.14-79.8-22.89-23.18-43.78-48.88-62.09-76.38-17.25-25.89-32.71-54.14-45.97-83.96-12.38-27.83-23.2-57.88-32.18-89.31-8.28-28.99-15.25-60.09-20.72-92.45-9.36-55.38-14.73-116.03-16.4-185.43-1.46-60.45.08-119.38,1.43-171.37,1.27-48.84,2.47-94.97.91-132.89h.25c1.56,37.91.36,84.05-.91,132.89-1.35,51.99-2.89,110.91-1.43,171.36,1.67,69.39,7.04,130.03,16.4,185.39,5.47,32.34,12.44,63.44,20.71,92.42,8.97,31.42,19.79,61.45,32.17,89.28,13.25,29.8,28.71,58.04,45.95,83.92,18.31,27.49,39.19,53.17,62.06,76.34,29.65,30.04,63.66,56.87,101.09,79.76,39.67,24.26,84.38,44.83,132.88,61.12,51.12,17.17,107.95,30.09,168.93,38.42,63.97,8.74,134.36,12.67,209.23,11.69,56.67-.73,109.93,4.4,158.37,15.29,45.5,10.23,87.84,25.77,125.85,46.2,35.49,19.08,68.03,42.86,96.72,70.7,26.61,25.81,50.5,55.68,71,88.76,31.13,50.24,55.1,108.75,71.25,173.92,13.69,55.26,21.63,114.49,23.61,176.04,2.06,64.04-2.86,115.16-7.35,146.76-5.48,38.59-13.37,69.97-21.65,86.09Z"/><path class="cls-3" d="m1938.74,1427.29l-.22-.11c7.99-15.55,15.91-47.65,21.19-85.86,4.4-31.84,9.19-83.35,6.99-147.9-2.12-62.21-10.23-122.04-24.09-177.82-16.37-65.88-40.61-124.97-72.03-175.65-20.56-33.15-44.48-63.08-71.1-88.93-28.7-27.87-61.21-51.69-96.65-70.79-37.95-20.45-80.2-36-125.59-46.22-45.13-10.16-94.46-15.3-146.78-15.3-3.7,0-7.41.03-11.13.08-73.8,1.02-143.25-2.83-206.4-11.42-60.23-8.2-116.42-20.95-167-37.9-48.02-16.09-92.34-36.42-131.73-60.43-37.18-22.66-71.02-49.24-100.58-79-22.99-23.15-44-48.84-62.45-76.35-17.37-25.91-32.97-54.2-46.38-84.07-12.52-27.9-23.49-58.04-32.63-89.58-8.43-29.1-15.56-60.35-21.19-92.86-9.65-55.68-15.33-116.75-17.37-186.71-1.77-60.97-.55-120.61.54-173.22,1-48.35,1.94-94.02.37-132.12h.25c1.57,38.1.63,83.77-.37,132.13-1.08,52.61-2.31,112.24-.54,173.21,2.04,69.94,7.71,131,17.36,186.67,5.63,32.51,12.76,63.74,21.19,92.84,9.13,31.53,20.1,61.66,32.61,89.55,13.4,29.87,29,58.14,46.36,84.04,18.44,27.5,39.44,53.17,62.42,76.31,29.55,29.75,63.37,56.32,100.53,78.97,39.37,23.99,83.67,44.32,131.68,60.41,50.57,16.95,106.74,29.69,166.96,37.89,63.14,8.59,132.56,12.44,206.37,11.42,56.5-.79,109.63,4.35,157.96,15.23,45.41,10.23,87.68,25.78,125.65,46.24,35.46,19.11,68,42.94,96.71,70.83,26.63,25.87,50.57,55.81,71.14,88.98,31.44,50.69,55.68,109.81,72.06,175.72,13.87,55.8,21.97,115.64,24.1,177.87,2.2,64.57-2.58,116.09-6.99,147.94-5.29,38.24-13.22,70.36-21.22,85.94Z"/><path class="cls-3" d="m1975.66,1412.19l-.22-.11c13.91-27.09,31.61-117.84,27.39-234.78-2.27-62.89-10.54-123.34-24.58-179.66-16.6-66.62-41.11-126.32-72.84-177.45-20.63-33.24-44.6-63.23-71.23-89.14-28.71-27.93-61.23-51.79-96.63-70.91-37.91-20.47-80.1-36.04-125.39-46.25-44.9-10.13-93.94-15.25-145.94-15.25-3.84,0-7.69.03-11.56.08-72.76,1.05-141.23-2.71-203.56-11.16-59.48-8.07-115-20.64-165.04-37.38-47.53-15.9-91.45-35.99-130.53-59.73-36.92-22.42-70.57-48.74-100.02-78.22-23.11-23.13-44.24-48.81-62.82-76.34-17.5-25.94-33.24-54.27-46.79-84.23-12.66-27.98-23.79-58.22-33.08-89.89-8.58-29.23-15.86-60.63-21.66-93.32-9.94-56.01-15.93-117.53-18.32-188.07-2.09-61.52-1.16-121.88-.35-175.14.73-47.74,1.42-92.83-.15-131.01h.25c1.57,38.18.88,83.27.15,131.02-.82,53.25-1.74,113.61.35,175.13,2.39,70.53,8.38,132.03,18.32,188.03,5.8,32.69,13.08,64.08,21.66,93.3,9.29,31.66,20.41,61.89,33.06,89.86,13.54,29.94,29.28,58.27,46.77,84.19,18.57,27.52,39.69,53.19,62.79,76.31,29.44,29.46,63.07,55.77,99.97,78.18,39.06,23.73,82.96,43.82,130.48,59.71,50.02,16.73,105.53,29.3,164.99,37.37,62.31,8.45,130.78,12.21,203.52,11.16,56.32-.81,109.33,4.29,157.56,15.17,45.32,10.22,87.52,25.79,125.45,46.28,35.43,19.13,67.96,43,96.69,70.95,26.65,25.92,50.63,55.93,71.27,89.19,31.74,51.15,56.26,110.88,72.87,177.52,14.04,56.34,22.31,116.8,24.58,179.71,2.35,65.1-2.31,117.02-6.63,149.12-5.18,38.45-12.95,70.52-20.78,85.78Z"/><path class="cls-3" d="m2012.58,1397.09l-.22-.11c7.66-14.92,15.26-46.9,20.32-85.54,4.24-32.34,8.76-84.66,6.27-150.27-2.42-63.58-10.85-124.64-25.06-181.5-16.84-67.37-41.62-127.68-73.65-179.26-20.7-33.32-44.71-63.38-71.37-89.35-28.73-27.98-61.24-51.88-96.62-71.03-37.87-20.5-79.99-36.07-125.19-46.28-44.67-10.09-93.43-15.2-145.1-15.2-3.98,0-7.97.03-11.99.09-71.7,1.08-139.23-2.59-200.74-10.9-58.73-7.94-113.6-20.34-163.09-36.86-47.05-15.7-90.56-35.57-129.33-59.04-36.65-22.19-70.11-48.25-99.45-77.45-191.87-190.93-188.8-491.83-186.56-711.54.48-47,.93-91.4-.64-129.53h.25c1.57,38.13,1.12,82.53.64,129.53-2.24,219.66-5.3,520.5,186.49,711.36,29.33,29.18,62.77,55.23,99.4,77.41,38.75,23.47,82.25,43.32,129.28,59.02,49.48,16.51,104.33,28.91,163.04,36.85,61.49,8.32,129.03,11.98,200.7,10.9,56.15-.86,109.02,4.24,157.15,15.11,45.22,10.22,87.36,25.8,125.25,46.31,35.4,19.16,67.92,43.07,96.67,71.07,26.67,25.98,50.7,56.05,71.4,89.4,32.05,51.61,56.84,111.94,73.68,179.33,14.22,56.88,22.65,117.96,25.07,181.55,2.49,65.62-2.03,117.96-6.27,150.31-5.07,38.67-12.67,70.68-20.35,85.63Z"/><path class="cls-3" d="m2049.5,1381.99l-.22-.11c7.5-14.6,14.93-46.52,19.88-85.39,4.15-32.6,8.55-85.33,5.91-151.47-2.56-64.26-11.16-125.96-25.54-183.36-17.07-68.11-42.12-129.03-74.47-181.07-20.76-33.4-44.81-63.53-71.49-89.55-28.75-28.04-61.25-51.97-96.59-71.14-37.83-20.52-79.89-36.1-124.99-46.31-48-10.86-100.72-15.92-156.69-15.04-70.64,1.11-137.25-2.47-197.94-10.65-57.98-7.82-112.2-20.05-161.15-36.36-46.56-15.51-89.67-35.15-128.13-58.37-36.39-21.97-69.65-47.77-98.88-76.69-23.35-23.1-44.74-48.82-63.59-76.43-17.77-26.03-33.8-54.51-47.64-84.65-12.94-28.17-24.38-58.67-33.98-90.64-8.87-29.52-16.48-61.28-22.6-94.39-10.5-56.75-17.11-119.25-20.2-191.08-2.7-62.71-2.38-124.63-2.09-179.25.24-46.13.47-89.71-1.09-127.65h.25c1.56,37.94,1.33,81.52,1.09,127.65-.29,54.62-.61,116.53,2.09,179.24,3.09,71.81,9.7,134.3,20.2,191.04,6.12,33.1,13.73,64.84,22.6,94.36,9.6,31.96,21.03,62.44,33.97,90.6,13.84,30.13,29.87,58.6,47.62,84.62,18.84,27.6,40.23,53.3,63.56,76.39,29.21,28.91,62.46,54.7,98.83,76.65,38.45,23.21,81.54,42.84,128.08,58.35,48.94,16.3,103.14,28.53,161.1,36.35,60.68,8.18,127.26,11.77,197.9,10.65,55.98-.88,108.72,4.18,156.75,15.05,45.13,10.21,87.2,25.8,125.06,46.33,35.36,19.18,67.88,43.13,96.65,71.18,26.69,26.03,50.76,56.17,71.53,89.59,32.35,52.06,57.42,113.01,74.5,181.14,14.39,57.42,22.99,119.13,25.55,183.41,2.64,66.15-1.76,118.9-5.91,151.51-4.95,38.89-12.4,70.84-19.91,85.47Z"/><path class="cls-3" d="m2086.42,1366.89l-.22-.11c13.02-25.36,29.97-118.51,24.99-237.91-2.71-64.96-11.47-127.28-26.03-185.22-17.3-68.86-42.63-130.4-75.28-182.89-20.83-33.48-44.92-63.67-71.62-89.74-28.77-28.08-61.26-52.06-96.57-71.25-37.79-20.54-79.78-36.13-124.79-46.33-47.9-10.86-100.47-15.89-156.28-14.98-69.62,1.14-135.28-2.36-195.16-10.41-57.24-7.69-110.81-19.76-159.22-35.86-46.08-15.33-88.78-34.74-126.94-57.71-36.12-21.74-69.2-47.29-98.31-75.94-23.48-23.11-45.01-48.85-64-76.52-17.91-26.09-34.08-54.66-48.08-84.93-13.09-28.29-24.67-58.94-34.44-91.08-9.02-29.7-16.78-61.66-23.07-94.99-10.78-57.17-17.69-120.21-21.12-192.74-3-63.36-2.97-126.1-2.95-181.45.02-45.12.04-87.74-1.51-125.35h.25c1.55,37.6,1.53,80.22,1.51,125.35-.03,55.35-.06,118.08,2.94,181.44,3.43,72.51,10.34,135.55,21.12,192.71,6.29,33.33,14.04,65.28,23.06,94.97,9.76,32.13,21.34,62.77,34.42,91.05,13.99,30.25,30.17,58.81,48.06,84.89,18.98,27.66,40.51,53.39,63.97,76.48,29.1,28.64,62.16,54.18,98.26,75.91,38.14,22.96,80.83,42.37,126.89,57.68,48.4,16.1,101.95,28.16,159.18,35.85,59.87,8.05,125.52,11.55,195.13,10.4,55.82-.91,108.42,4.12,156.34,14.98,45.04,10.21,87.04,25.8,124.86,46.36,35.33,19.2,67.84,43.19,96.63,71.29,26.71,26.08,50.82,56.29,71.66,89.79,32.66,52.51,58,114.07,75.31,182.96,14.56,57.96,23.32,120.3,26.04,185.27,2.78,66.68-1.48,119.85-5.55,152.72-4.84,39.12-12.12,71.01-19.46,85.31Z"/><path class="cls-3" d="m2123.34,1351.79l-.22-.11c7.17-13.96,14.27-45.76,18.99-85.07,3.98-33.12,8.11-86.71,5.19-153.89-2.86-65.66-11.78-128.6-26.51-187.09-17.54-69.62-43.14-131.76-76.09-184.7-20.89-33.56-45.03-63.81-71.74-89.92-28.79-28.13-61.27-52.14-96.55-71.35-37.75-20.56-79.67-36.15-124.59-46.35-47.79-10.85-100.25-15.87-155.88-14.91-68.58,1.17-133.32-2.25-192.41-10.17-56.5-7.57-109.43-19.48-157.31-35.38-45.59-15.14-87.9-34.34-125.75-57.06-35.85-21.52-68.73-46.83-97.73-75.21-23.61-23.12-45.29-48.91-64.43-76.65-18.05-26.16-34.38-54.84-48.53-85.25-13.23-28.43-24.98-59.24-34.9-91.58-9.17-29.88-17.09-62.07-23.53-95.66-11.06-57.62-18.27-121.25-22.04-194.52-3.3-64.05-3.56-127.65-3.79-183.76-.18-43.95-.35-85.47-1.88-122.58h.25c1.53,37.11,1.7,78.63,1.88,122.58.23,56.11.49,119.7,3.79,183.74,3.77,73.26,10.98,136.88,22.04,194.49,6.44,33.58,14.36,65.75,23.53,95.63,9.92,32.33,21.66,63.13,34.89,91.55,14.15,30.39,30.47,59.06,48.51,85.21,19.13,27.73,40.8,53.51,64.4,76.62,28.98,28.37,61.84,53.66,97.68,75.18,37.83,22.71,80.12,41.9,125.7,57.04,47.86,15.89,100.77,27.79,157.26,35.37,59.07,7.92,123.8,11.33,192.37,10.16,55.66-.95,108.13,4.07,155.94,14.92,44.94,10.2,86.88,25.8,124.66,46.37,35.3,19.22,67.8,43.24,96.6,71.39,26.73,26.12,50.88,56.4,71.78,89.97,32.97,52.97,58.58,115.13,76.12,184.77,14.74,58.5,23.66,121.47,26.52,187.14,2.93,67.2-1.21,120.8-5.19,153.93-4.73,39.34-11.84,71.17-19.02,85.16Z"/><path class="cls-3" d="m2160.26,1336.68l-.22-.11c7-13.63,13.94-45.38,18.55-84.92,3.89-33.39,7.89-87.41,4.83-155.11-3.01-66.36-12.09-129.94-27-188.97-17.77-70.37-43.65-133.13-76.91-186.52-20.95-33.63-45.13-63.95-71.86-90.1-28.8-28.18-61.28-52.21-96.52-71.45-37.71-20.58-79.57-36.17-124.39-46.36-47.69-10.83-100-15.83-155.48-14.84-67.57,1.2-131.39-2.14-189.68-9.93-55.77-7.46-108.06-19.2-155.4-34.9-45.11-14.96-87.02-33.95-124.56-56.42-35.59-21.31-68.27-46.38-97.15-74.5-23.76-23.14-45.59-48.99-64.88-76.82-18.2-26.25-34.68-55.06-48.99-85.61-13.38-28.58-25.28-59.58-35.36-92.13-9.32-30.09-17.39-62.52-24-96.38-25.43-130.33-26.56-264.36-27.57-382.61-.36-42.62-.7-82.88-2.21-119.32h.25c1.5,36.44,1.84,76.7,2.21,119.32,1,118.24,2.14,252.26,27.56,382.57,6.6,33.85,14.68,66.27,23.99,96.36,10.08,32.55,21.97,63.53,35.35,92.1,14.3,30.54,30.78,59.33,48.97,85.58,19.28,27.82,41.1,53.65,64.85,76.78,28.86,28.11,61.53,53.16,97.1,74.46,37.52,22.47,79.41,41.44,124.51,56.4,47.33,15.7,99.6,27.44,155.36,34.89,58.28,7.79,122.08,11.13,189.64,9.93,55.5-.99,107.83,4.01,155.54,14.85,44.85,10.19,86.72,25.8,124.46,46.38,35.27,19.24,67.76,43.29,96.58,71.49,26.75,26.17,50.94,56.5,71.9,90.15,33.28,53.42,59.16,116.2,76.94,186.59,14.91,59.05,24,122.64,27,189.02,3.07,67.72-.93,121.75-4.83,155.15-4.62,39.56-11.56,71.34-18.57,85Z"/><path class="cls-3" d="m2197.18,1321.58l-.22-.11c6.73-13.11,13.67-45.59,18.1-84.76,3.81-33.67,7.67-88.12,4.47-156.34-3.16-67.07-12.4-131.28-27.48-190.86-18-71.13-44.15-134.5-77.72-188.35-21.01-33.7-45.23-64.08-71.98-90.28-28.82-28.22-61.28-52.29-96.5-71.54-37.67-20.59-79.46-36.19-124.2-46.37-43.51-9.9-90.87-14.9-140.95-14.9-4.69,0-9.39.04-14.13.13-66.56,1.23-129.47-2.03-186.97-9.7-55.05-7.34-106.7-18.93-153.51-34.44-44.64-14.79-86.15-33.56-123.38-55.8-35.32-21.1-67.81-45.93-96.56-73.8-23.91-23.18-45.9-49.09-65.35-77.03-18.35-26.36-34.99-55.3-49.46-86.03-13.54-28.75-25.59-59.95-35.83-92.75-9.47-30.32-17.7-63.01-24.46-97.17-26.04-131.5-27.76-267.35-29.28-387.22-.52-41.11-1.01-79.94-2.48-115.52h.25c1.47,35.58,1.96,74.41,2.48,115.52,1.52,119.86,3.24,255.7,29.27,387.17,6.76,34.15,14.99,66.84,24.46,97.15,10.24,32.78,22.29,63.98,35.82,92.72,14.46,30.72,31.1,59.65,49.44,86,19.44,27.92,41.42,53.83,65.32,77,28.74,27.86,61.21,52.67,96.52,73.77,37.21,22.23,78.71,41,123.33,55.78,46.8,15.5,98.43,27.09,153.47,34.42,57.49,7.67,120.39,10.92,186.93,9.7,55.34-1.03,107.54,3.95,155.14,14.77,44.76,10.18,86.57,25.79,124.26,46.39,35.23,19.26,67.72,43.34,96.55,71.58,26.77,26.21,51,56.6,72.02,90.32,33.58,53.87,59.74,117.26,77.75,188.42,15.08,59.59,24.33,123.82,27.49,190.91,3.21,68.24-.66,122.7-4.47,156.38-4.43,39.2-11.38,71.71-18.12,84.84Z"/><path class="cls-3" d="m2234.1,1306.48l-.22-.11c6.57-12.79,13.33-45.21,17.65-84.6,3.72-33.94,7.45-88.83,4.1-157.58-3.3-67.78-12.71-132.64-27.96-192.76-18.24-71.89-44.66-135.88-78.53-190.17-21.07-33.77-45.33-64.2-72.1-90.44-28.83-28.26-61.29-52.36-96.47-71.62-37.63-20.61-79.35-36.21-124-46.37-47.48-10.81-99.52-15.76-154.68-14.69-65.56,1.26-127.57-1.93-184.29-9.47-54.33-7.23-105.35-18.66-151.64-33.98-44.16-14.62-85.28-33.19-122.2-55.2-35.06-20.9-67.35-45.5-95.98-73.12-24.07-23.22-46.22-49.23-65.84-77.29-18.51-26.48-35.31-55.59-49.95-86.51-13.69-28.94-25.91-60.37-36.31-93.43-9.62-30.57-18-63.55-24.93-98.04-26.65-132.76-28.94-270.55-30.96-392.12-.66-39.41-1.27-76.62-2.7-111.14h.25c1.42,34.51,2.04,71.73,2.7,111.13,2.02,121.56,4.31,259.34,30.96,392.08,6.92,34.47,15.3,67.45,24.92,98.01,10.4,33.05,22.61,64.47,36.3,93.4,14.63,30.91,31.42,60.01,49.93,86.48,19.61,28.05,41.75,54.04,65.81,77.25,28.62,27.61,60.89,52.2,95.93,73.08,36.91,22,78.01,40.56,122.15,55.17,46.27,15.31,97.27,26.74,151.59,33.97,56.71,7.54,118.7,10.73,184.25,9.47,55.17-1.06,107.24,3.89,154.74,14.7,44.67,10.17,86.41,25.78,124.06,46.4,35.2,19.27,67.68,43.38,96.52,71.66,26.78,26.25,51.05,56.7,72.13,90.49,33.89,54.32,60.32,118.32,78.56,190.24,15.25,60.14,24.67,125.01,27.97,192.81,3.35,68.76-.38,123.66-4.1,157.61-4.32,39.42-11.09,71.87-17.67,84.69Z"/><path class="cls-3" d="m2271.01,1291.38l-.22-.12c6.4-12.46,12.99-44.82,17.2-84.44,3.63-34.23,7.23-89.57,3.74-158.82-3.45-68.5-13.02-134-28.45-194.66-18.47-72.66-45.17-137.25-79.35-192-21.13-33.84-45.42-64.32-72.21-90.6-28.84-28.3-61.29-52.42-96.44-71.7-37.59-20.62-79.24-36.22-123.8-46.37-47.38-10.8-99.3-15.72-154.29-14.62-45.41.91-89.29-.36-130.43-3.76-39.96-3.31-78.46-8.72-114.41-16.1-34.87-7.15-68.33-16.35-99.46-27.33-30.13-10.63-58.91-23.24-85.56-37.47-25.73-13.74-50.21-29.39-72.73-46.51-21.69-16.49-42.2-34.8-60.96-54.45-35.19-36.86-65.76-80.04-90.85-128.32-42.86-82.48-71.38-181.78-87.18-303.55-13.72-105.75-15.91-212.94-17.83-307.51-.76-37.49-1.48-72.9-2.85-106.12h.25c1.37,33.21,2.09,68.62,2.85,106.11,1.93,94.57,4.11,201.75,17.83,307.48,15.8,121.75,44.31,221.01,87.16,303.47,25.08,48.27,55.63,91.42,90.81,128.26,18.75,19.63,39.25,37.95,60.93,54.42,22.52,17.11,46.98,32.75,72.7,46.49,26.64,14.23,55.42,26.83,85.53,37.46,31.12,10.98,64.57,20.17,99.42,27.32,35.95,7.37,74.43,12.79,114.38,16.09,41.13,3.4,85,4.67,130.4,3.76,55.01-1.09,106.95,3.82,154.35,14.62,44.57,10.16,86.25,25.77,123.86,46.4,35.17,19.29,67.63,43.42,96.49,71.74,26.8,26.29,51.11,56.79,72.25,90.65,34.2,54.76,60.9,119.38,79.38,192.07,15.43,60.68,25,126.19,28.46,194.71,3.49,69.27-.11,124.62-3.74,158.86-4.21,39.65-10.81,72.04-17.22,84.53Z"/><path class="cls-3" d="m2307.93,1276.28l-.22-.11c6.24-12.14,12.65-44.44,16.74-84.28,3.54-34.52,7.01-90.31,3.38-160.07-5.59-107.4-29.05-262.32-109.09-390.4-21.19-33.91-45.52-64.44-72.32-90.76-28.86-28.34-61.29-52.48-96.41-71.77-37.55-20.63-79.14-36.23-123.6-46.37-47.28-10.78-99.06-15.67-153.89-14.54-45.04.93-88.57-.32-129.39-3.71-39.66-3.3-77.86-8.72-113.55-16.1-34.62-7.16-67.84-16.38-98.75-27.39-29.92-10.66-58.53-23.31-85.01-37.59-25.58-13.79-49.91-29.5-72.32-46.69-21.58-16.55-42-34.95-60.67-54.69-35.05-37.04-65.54-80.43-90.6-128.98-42.84-82.97-71.5-182.95-87.64-305.66-14.02-106.63-16.61-215.07-18.89-310.74-.84-35.35-1.64-68.74-2.95-100.4h.25c1.3,31.65,2.1,65.04,2.95,100.39,2.28,95.66,4.87,204.09,18.89,310.71,16.13,122.68,44.79,222.63,87.61,305.58,25.06,48.53,55.52,91.91,90.56,128.93,18.67,19.72,39.07,38.12,60.64,54.66,22.4,17.18,46.72,32.88,72.29,46.67,26.47,14.27,55.07,26.92,84.98,37.57,30.9,11.01,64.12,20.22,98.72,27.38,35.68,7.38,73.87,12.8,113.52,16.1,40.81,3.39,84.33,4.64,129.36,3.71,5.16-.11,10.31-.16,15.42-.16,49.16,0,95.69,4.94,138.54,14.71,44.48,10.14,86.09,25.75,123.66,46.39,35.13,19.3,67.59,43.46,96.46,71.81,26.82,26.33,51.16,56.88,72.36,90.8,80.07,128.13,103.54,283.09,109.13,390.52,3.63,69.78.17,125.58-3.38,160.11-4.09,39.88-10.52,72.21-16.77,84.37Z"/><path class="cls-3" d="m2344.85,1261.18l-.22-.11c6.07-11.82,12.31-44.05,16.28-84.13,3.46-34.81,6.78-91.06,3.01-161.33-5.83-108.61-29.71-265.15-110.39-394.16-21.24-33.97-45.61-64.55-72.43-90.91-28.87-28.37-61.29-52.54-96.37-71.84-37.51-20.63-79.03-36.23-123.4-46.36-47.17-10.77-98.82-15.63-153.5-14.46-44.69.96-87.88-.28-128.39-3.67-39.36-3.29-77.28-8.72-112.71-16.12-34.37-7.18-67.37-16.43-98.08-27.48-29.73-10.7-58.15-23.4-84.48-37.74-25.43-13.85-49.63-29.63-71.92-46.91-21.47-16.64-41.79-35.13-60.39-54.97-34.92-37.24-65.32-80.9-90.36-129.76-42.81-83.53-71.62-184.28-88.06-308.02-14.3-107.6-17.28-217.36-19.9-314.2-.89-32.96-1.74-64.08-2.97-93.92h.25c1.23,29.83,2.07,60.95,2.97,93.91,2.62,96.83,5.6,206.59,19.9,314.17,16.45,123.71,45.24,224.44,88.04,307.94,25.03,48.83,55.42,92.47,90.32,129.7,18.59,19.83,38.9,38.32,60.36,54.95,22.28,17.26,46.47,33.04,71.89,46.88,26.32,14.34,54.73,27.03,84.45,37.72,30.7,11.05,63.68,20.29,98.04,27.47,35.42,7.4,73.34,12.82,112.68,16.12,40.5,3.39,83.68,4.62,128.36,3.67,54.71-1.16,106.37,3.7,153.56,14.47,44.39,10.13,85.93,25.74,123.46,46.38,35.1,19.31,67.54,43.49,96.43,71.88,26.83,26.37,51.21,56.97,72.46,90.95,80.71,129.05,104.6,285.64,110.43,394.28,3.77,70.29.44,126.55-3.01,161.37-3.98,40.11-10.23,72.38-16.31,84.22Z"/><path class="cls-3" d="m2381.77,1246.08l-.22-.12c10.4-20.25,25.46-119.96,18.47-246.57-6.06-109.81-30.37-267.99-111.69-397.92-21.3-34.03-45.7-64.66-72.53-91.05-28.88-28.4-61.29-52.59-96.34-71.9-37.47-20.64-78.92-36.23-123.2-46.35-47.07-10.75-98.58-15.59-153.11-14.38-44.35.98-87.22-.24-127.43-3.63-39.08-3.29-76.73-8.73-111.92-16.16-34.14-7.21-66.92-16.49-97.43-27.59-29.54-10.75-57.8-23.51-83.97-37.93-25.29-13.93-49.36-29.8-71.53-47.17-21.37-16.74-41.6-35.35-60.12-55.31-34.79-37.49-65.1-81.45-90.12-130.65-42.78-84.16-71.71-185.78-88.46-310.66-14.57-108.66-17.91-219.83-20.86-317.92-.91-30.29-1.77-58.89-2.91-86.59h.25c1.14,27.69,2,56.3,2.91,86.58,2.95,98.08,6.29,209.24,20.86,317.89,16.74,124.85,45.67,226.44,88.43,310.58,25,49.18,55.31,93.12,90.08,130.59,18.52,19.96,38.74,38.56,60.09,55.28,22.17,17.36,46.22,33.23,71.5,47.15,26.16,14.41,54.4,27.17,83.94,37.92,30.5,11.1,63.27,20.38,97.4,27.58,35.18,7.43,72.82,12.86,111.89,16.16,40.2,3.39,83.06,4.61,127.4,3.63,54.54-1.21,106.08,3.63,153.17,14.38,44.3,10.12,85.77,25.72,123.26,46.37,35.07,19.32,67.5,43.52,96.39,71.94,26.84,26.4,51.26,57.05,72.57,91.09,81.35,129.97,105.66,288.19,111.73,398.04,7,126.65-8.09,226.42-18.5,246.7Z"/><path class="cls-3" d="m2418.69,1230.97l-.22-.12c5.64-10.99,11.67-43.89,15.37-83.81,3.27-35.42,6.33-92.6,2.28-163.87-6.3-111.03-31.02-270.85-112.99-401.69-21.35-34.09-45.79-64.76-72.64-91.18-28.89-28.43-61.29-52.64-96.3-71.96-37.43-20.65-78.81-36.23-123-46.33-46.96-10.73-98.34-15.54-152.71-14.29-44.03,1.01-86.6-.2-126.52-3.59-38.81-3.3-76.21-8.75-111.16-16.22-33.92-7.24-66.49-16.57-96.82-27.74-29.37-10.81-57.45-23.65-83.48-38.16-25.15-14.02-49.09-30-71.17-47.48-21.27-16.85-41.41-35.6-59.86-55.71-34.66-37.77-64.9-82.07-89.88-131.68-42.75-84.88-71.8-187.46-88.82-313.6-14.82-109.83-18.51-222.51-21.76-321.92-.89-27.31-1.74-53.11-2.78-78.34h.25c1.04,25.22,1.88,51.02,2.78,78.33,3.26,99.41,6.95,212.08,21.76,321.9,17.01,126.11,46.06,228.66,88.79,313.52,24.97,49.58,55.2,93.87,89.84,131.62,18.44,20.1,38.58,38.83,59.83,55.68,22.06,17.48,45.99,33.45,71.13,47.46,26.02,14.5,54.09,27.34,83.45,38.14,30.31,11.16,62.87,20.49,96.78,27.73,34.94,7.46,72.33,12.91,111.13,16.21,39.92,3.39,82.48,4.6,126.5,3.59,54.38-1.24,105.79,3.56,152.78,14.3,44.21,10.1,85.62,25.7,123.06,46.35,35.03,19.33,67.45,43.55,96.36,72,26.86,26.43,51.31,57.13,72.67,91.23,82,130.89,106.72,290.75,113.03,401.81,4.05,71.29.99,128.49-2.28,163.91-3.69,39.95-9.74,72.89-15.39,83.9Z"/><path class="cls-3" d="m2455.61,1215.87l-.22-.11c5.48-10.66,11.33-43.5,14.9-83.65,3.18-35.73,6.1-93.38,1.92-165.16-6.54-112.25-31.68-273.72-114.29-405.47-21.41-34.14-45.88-64.86-72.74-91.31-28.9-28.46-61.29-52.69-96.27-72.01-37.38-20.65-78.7-36.23-122.8-46.31-46.86-10.71-98.11-15.49-152.33-14.2-43.73,1.03-86.01-.16-125.67-3.57-38.55-3.31-75.71-8.79-110.45-16.29-33.71-7.28-66.09-16.67-96.23-27.92-29.2-10.89-57.13-23.82-83.02-38.44-25.02-14.12-48.85-30.23-70.82-47.86-21.17-16.99-41.23-35.89-59.61-56.17-34.53-38.1-64.7-82.8-89.65-132.86-42.71-85.69-71.87-189.34-89.14-316.88-15.04-111.11-19.06-225.4-22.6-326.24-.84-24-1.64-46.67-2.56-69.06h.25c.92,22.37,1.72,45.04,2.56,69.05,3.54,100.83,7.55,215.12,22.6,326.21,17.27,127.51,46.42,231.13,89.11,316.8,24.94,50.04,55.09,94.72,89.61,132.8,18.38,20.27,38.42,39.16,59.59,56.14,21.96,17.62,45.77,33.71,70.78,47.83,25.88,14.61,53.8,27.54,82.99,38.42,30.13,11.24,62.5,20.63,96.2,27.91,34.72,7.5,71.87,12.98,110.42,16.29,39.65,3.4,81.92,4.6,125.64,3.57,54.23-1.28,105.5,3.5,152.39,14.21,44.12,10.08,85.46,25.67,122.86,46.33,35,19.33,67.41,43.57,96.32,72.05,26.87,26.46,51.36,57.2,72.77,91.36,82.64,131.8,107.78,293.31,114.33,405.59,4.18,71.79,1.27,129.46-1.92,165.19-3.58,40.18-9.44,73.06-14.93,83.75Z"/><path class="cls-3" d="m2492.53,1200.77l-.22-.11c5.31-10.34,10.98-43.11,14.44-83.5,3.09-36.05,5.87-94.18,1.55-166.45-6.78-113.49-32.34-276.61-115.59-409.27-21.46-34.2-45.96-64.96-72.84-91.44-28.91-28.49-61.29-52.73-96.23-72.05-37.34-20.65-78.59-36.22-122.6-46.28-46.76-10.69-97.88-15.44-151.94-14.11-43.45,1.06-85.46-.13-124.87-3.54-38.32-3.32-75.25-8.84-109.78-16.39-33.51-7.33-65.71-16.8-95.69-28.13-29.04-10.98-56.83-24.02-82.59-38.76-24.9-14.25-48.61-30.5-70.49-48.29-21.08-17.15-41.06-36.23-59.38-56.7-34.42-38.47-64.5-83.62-89.42-134.2-42.67-86.61-71.92-191.46-89.42-320.53-15.25-112.51-19.56-228.54-23.36-330.91-.75-20.32-1.47-39.51-2.26-58.62h.25c.79,19.11,1.5,38.3,2.26,58.62,3.8,102.36,8.11,218.38,23.36,330.89,17.49,129.05,46.73,233.87,89.39,320.46,24.91,50.56,54.98,95.69,89.38,134.15,18.31,20.46,38.28,39.53,59.35,56.67,21.86,17.78,45.57,34.02,70.45,48.26,25.75,14.74,53.52,27.77,82.55,38.75,29.97,11.33,62.15,20.79,95.65,28.12,34.52,7.55,71.44,13.07,109.75,16.39,39.4,3.42,81.4,4.61,124.84,3.54,54.08-1.33,105.22,3.43,152,14.12,44.03,10.06,85.3,25.64,122.66,46.3,34.96,19.33,67.36,43.59,96.28,72.09,26.88,26.49,51.4,57.27,72.87,91.48,83.28,132.7,108.84,295.87,115.63,409.39,4.32,72.28,1.54,130.43-1.55,166.48-3.47,40.42-9.14,73.23-14.46,83.59Z"/><path class="cls-3" d="m2529.45,1185.67l-.22-.11c4.21-8.2,10.16-37.15,13.97-83.34,3-36.37,5.64-95,1.19-167.75-7.02-114.73-33-279.52-116.89-413.07-21.51-34.25-46.05-65.05-72.93-91.55-28.92-28.51-61.28-52.76-96.19-72.09-37.3-20.65-78.48-36.21-122.39-46.25-46.66-10.67-97.65-15.38-151.55-14.02-43.19,1.09-84.95-.1-124.13-3.53-38.1-3.34-74.83-8.9-109.16-16.52-33.33-7.4-65.36-16.95-95.18-28.39-28.89-11.08-56.55-24.25-82.19-39.15-24.78-14.4-48.39-30.81-70.18-48.79-21-17.33-40.9-36.62-59.16-57.31-34.3-38.9-64.31-84.57-89.2-135.73-42.63-87.64-71.95-193.83-89.64-324.62-15.43-114.06-20.01-231.96-24.04-335.98-.63-16.21-1.22-31.52-1.86-46.9h.25c.63,15.37,1.23,30.68,1.86,46.89,4.04,104.01,8.61,221.9,24.04,335.95,17.69,130.76,47.01,236.92,89.62,324.54,24.88,51.15,54.87,96.79,89.16,135.68,18.24,20.69,38.14,39.96,59.13,57.29,21.77,17.97,45.37,34.38,70.14,48.77,25.63,14.89,53.27,28.05,82.15,39.13,29.81,11.44,61.83,20.99,95.15,28.38,34.33,7.62,71.04,13.17,109.13,16.51,39.17,3.43,80.92,4.62,124.1,3.53,53.92-1.36,104.93,3.36,151.61,14.03,43.94,10.04,85.14,25.61,122.46,46.27,34.93,19.34,67.31,43.61,96.24,72.13,26.9,26.52,51.45,57.34,72.97,91.6,83.92,133.6,109.9,298.44,116.93,413.19,4.45,72.77,1.81,131.4-1.19,167.78-3.81,46.23-9.78,75.21-14,83.44Z"/><path class="cls-3" d="m2566.37,1170.57l-.22-.11c4.07-7.93,9.83-36.73,13.5-83.19,2.9-36.7,5.4-95.82.82-169.05-7.26-115.97-33.66-282.44-118.19-416.89-21.56-34.3-46.13-65.14-73.03-91.67-28.92-28.53-61.27-52.8-96.15-72.13-37.26-20.65-78.37-36.2-122.19-46.21-46.56-10.64-97.41-15.34-151.17-13.93-10.55.28-21.06.41-31.3.41-669.43.06-692.54-579.51-709.56-1004.43-.46-11.36-.91-22.61-1.36-33.73h.25c.46,11.11.91,22.36,1.36,33.72,4.24,105.79,9.04,225.7,24.62,341.46,17.86,132.66,47.23,240.31,89.79,329.1,24.84,51.81,54.76,98.05,88.95,137.42,18.19,20.95,38.01,40.46,58.92,57.99,21.69,18.19,45.19,34.79,69.86,49.35,25.52,15.06,53.03,28.38,81.78,39.58,29.67,11.56,61.53,21.21,94.68,28.69,34.15,7.7,70.68,13.31,108.57,16.67,38.96,3.46,80.49,4.64,123.44,3.53,53.78-1.41,104.65,3.29,151.23,13.93,43.85,10.02,84.98,25.58,122.26,46.24,34.89,19.34,67.26,43.62,96.2,72.17,26.91,26.54,51.49,57.4,73.06,91.71,84.55,134.49,110.96,301,118.23,417,4.59,73.25,2.09,132.38-.82,169.09-3.68,46.49-9.45,75.33-13.53,83.28Z"/><path class="cls-3" d="m2603.29,1155.47l-.22-.11c3.93-7.66,9.49-36.3,13.03-83.03,2.81-37.04,5.17-96.66.45-170.37-7.5-117.23-34.33-285.37-119.49-420.71-21.61-34.34-46.21-65.22-73.12-91.77-28.93-28.55-61.27-52.83-96.11-72.16-37.21-20.64-78.26-36.18-121.99-46.18-46.45-10.62-97.17-15.27-150.78-13.83-42.74,1.15-84.09-.04-122.87-3.53-37.72-3.4-74.09-9.07-108.1-16.86-33.02-7.57-64.75-17.34-94.31-29.06-28.64-11.35-56.06-24.85-81.48-40.12-24.58-14.76-48.01-31.6-69.63-50.04-20.85-17.78-40.62-37.58-58.75-58.82-34.1-39.95-63.97-86.86-88.78-139.45-42.52-90.13-71.93-199.48-89.92-334.28-15.7-117.67-20.69-239.77-25.1-347.49-.26-6.34-.52-12.65-.78-18.92h.25c.26,6.26.52,12.57.78,18.91,4.4,107.72,9.39,229.82,25.1,347.47,17.99,134.78,47.39,244.1,89.9,334.2,24.8,52.57,54.66,99.47,88.74,139.4,18.13,21.24,37.89,41.02,58.73,58.8,21.61,18.44,45.03,35.26,69.6,50.02,25.42,15.26,52.82,28.75,81.45,40.1,29.54,11.71,61.26,21.48,94.27,29.05,34,7.79,70.36,13.46,108.07,16.86,38.78,3.49,80.11,4.68,122.85,3.53,53.61-1.44,104.37,3.21,150.84,13.83,43.76,10,84.83,25.55,122.06,46.2,34.86,19.34,67.21,43.63,96.16,72.2,26.92,26.57,51.53,57.46,73.15,91.82,85.19,135.38,112.02,303.57,119.53,420.83,4.72,73.72,2.36,133.36-.45,170.4-1.59,20.95-3.75,40.07-6.24,55.31-2.25,13.76-4.67,23.64-6.82,27.82Z"/><path class="cls-3" d="m2640.2,1140.36l-.22-.11c7.77-15.13,21.44-119.99,12.65-254.57-14.04-214.67-73.43-349.36-120.79-424.54-21.66-34.39-46.29-65.3-73.21-91.87-28.94-28.57-61.26-52.86-96.06-72.18-37.17-20.64-78.15-36.16-121.79-46.13-46.35-10.59-96.95-15.21-150.4-13.73-42.58,1.18-83.74-.01-122.37-3.55-37.57-3.44-73.8-9.19-107.68-17.09-32.89-7.67-64.5-17.59-93.95-29.48-28.54-11.52-55.85-25.22-81.19-40.72-24.5-14.99-47.85-32.08-69.4-50.81-20.78-18.06-40.49-38.17-58.58-59.75-34.01-40.58-63.81-88.26-88.57-141.71-42.45-91.62-71.88-202.84-89.95-339.99-15.78-119.77-20.91-244.24-25.44-354.07l-.09-2.25h.25s.09,2.24.09,2.24c4.53,109.82,9.65,234.29,25.44,354.05,18.07,137.13,47.49,248.32,89.93,339.92,24.76,53.43,54.54,101.08,88.54,141.65,18.08,21.57,37.78,41.67,58.55,59.72,21.54,18.72,44.88,35.81,69.37,50.79,25.33,15.49,52.63,29.19,81.15,40.7,29.43,11.88,61.03,21.8,93.91,29.47,33.87,7.9,70.08,13.65,107.64,17.08,38.62,3.53,79.78,4.72,122.34,3.54,53.47-1.48,104.09,3.14,150.46,13.73,43.67,9.98,84.67,25.51,121.86,46.16,34.82,19.34,67.16,43.63,96.12,72.22,26.93,26.59,51.57,57.51,73.24,91.92,37.27,59.17,66.72,129.97,87.54,210.44,17.12,66.17,28.32,138.24,33.29,214.22,8.8,134.62-4.89,239.55-12.67,254.7Z"/><path class="cls-3" d="m2677.12,1125.26l-.22-.11c3.53-6.88,8.82-35.7,12.09-82.72,2.62-37.73,4.7-98.37-.28-173.02-14.48-216.97-74.38-352.71-122.09-428.39-21.71-34.43-46.37-65.37-73.29-91.97-28.94-28.59-61.25-52.88-96.02-72.2-37.12-20.63-78.03-36.13-121.59-46.08-46.25-10.56-96.72-15.14-150.01-13.62-41.92,1.2-82.5.04-120.59-3.45-37.06-3.39-72.82-9.08-106.29-16.92-32.51-7.61-63.77-17.45-92.92-29.26-28.26-11.45-55.34-25.06-80.48-40.47-24.32-14.91-47.53-31.92-68.97-50.56-20.69-17.99-40.34-38.02-58.39-59.52-33.99-40.49-63.86-88.07-88.78-141.42-42.93-91.91-72.89-203.37-91.6-340.75-7.39-54.25-13.19-113.56-17.73-181.31-4.03-60-6.63-120.14-8.96-176.58h.25c2.33,56.43,4.93,116.56,8.96,176.57,4.54,67.75,10.35,127.05,17.73,181.29,18.71,137.36,48.66,248.8,91.58,340.68,24.91,53.33,54.77,100.89,88.74,141.36,18.05,21.5,37.68,41.51,58.37,59.5,21.43,18.63,44.63,35.64,68.94,50.54,25.13,15.4,52.2,29.01,80.44,40.46,29.14,11.8,60.39,21.64,92.88,29.25,33.45,7.83,69.2,13.52,106.25,16.91,38.08,3.49,78.65,4.65,120.56,3.45,53.32-1.52,103.81,3.06,150.08,13.63,43.58,9.96,84.51,25.47,121.66,46.11,34.79,19.33,67.11,43.64,96.07,72.24,26.94,26.61,51.61,57.57,73.33,92.01,37.58,59.61,67.3,131.03,88.36,212.28,17.29,66.72,28.65,139.47,33.77,216.22,4.98,74.66,2.9,135.32.29,173.05-3.27,47.05-8.57,75.92-12.12,82.82Z"/><path class="cls-3" d="m2714.04,1110.16l-.22-.11c7.29-14.19,20.15-121.8,10.96-256.93-14.92-219.28-75.34-356.09-123.39-432.24-21.75-34.47-46.44-65.44-73.38-92.05-28.95-28.6-61.24-52.89-95.97-72.21-37.08-20.62-77.92-36.11-121.39-46.03-46.14-10.54-96.49-15.08-149.63-13.52-41.22,1.21-81.12.09-118.61-3.33-36.5-3.33-71.75-8.95-104.76-16.68-32.08-7.52-62.97-17.25-91.79-28.94-27.96-11.33-54.78-24.83-79.71-40.1-24.13-14.78-47.19-31.66-68.51-50.16-20.6-17.86-40.18-37.75-58.21-59.12-33.98-40.28-63.94-87.63-89.04-140.74-43.49-92-74.07-203.46-93.49-340.74-17.19-121.52-23.31-245.1-28.09-361.27h.25c4.79,116.15,10.9,239.72,28.09,361.23,19.42,137.25,49.99,248.68,93.47,340.67,25.09,53.09,55.04,100.42,89.01,140.68,18.02,21.36,37.59,41.24,58.18,59.09,21.32,18.49,44.36,35.36,68.48,50.13,24.92,15.26,51.72,28.75,79.67,40.08,28.81,11.68,59.68,21.41,91.75,28.93,33,7.73,68.23,13.34,104.72,16.68,37.48,3.43,77.38,4.55,118.58,3.33,53.16-1.57,103.53,2.98,149.69,13.52,43.49,9.93,84.35,25.42,121.45,46.06,34.75,19.33,67.06,43.63,96.03,72.25,26.95,26.62,51.65,57.61,73.41,92.1,37.89,60.04,67.89,132.08,89.18,214.13,17.45,67.27,28.98,140.69,34.25,218.23,9.2,135.18-3.69,242.85-10.99,257.06Z"/><path class="cls-3" d="m2750.96,1095.06l-.22-.11c3.36-6.55,8.27-36.96,11.13-82.42,2.42-38.45,4.22-100.15-1.02-175.71-5.43-78.3-17.11-152.39-34.73-220.2-21.52-82.82-51.78-155.46-89.96-215.91-21.8-34.51-46.51-65.51-73.46-92.13-28.95-28.61-61.23-52.91-95.92-72.22-37.03-20.61-77.81-36.08-121.19-45.97-46.04-10.51-96.26-15.01-149.25-13.41-40.5,1.23-79.74.15-116.64-3.22-35.94-3.28-70.67-8.81-103.23-16.45-31.66-7.43-62.16-17.06-90.66-28.62-27.66-11.22-54.22-24.59-78.94-39.72-23.94-14.66-46.84-31.4-68.05-49.75-20.5-17.74-40.02-37.49-58.02-58.72-33.98-40.08-64.03-87.2-89.31-140.06-44.05-92.11-75.25-203.56-95.38-340.72-17.68-120.47-24.62-246.45-29.49-364.64h.25c4.87,118.17,11.81,244.14,29.49,364.6,20.12,137.14,51.31,248.57,95.35,340.65,25.27,52.84,55.31,99.94,89.27,140,17.99,21.21,37.5,40.96,57.99,58.69,21.2,18.34,44.09,35.07,68.02,49.73,24.7,15.12,51.25,28.48,78.9,39.7,28.48,11.56,58.97,21.18,90.62,28.61,32.55,7.64,67.27,13.17,103.19,16.45,36.89,3.36,76.12,4.45,116.61,3.22,53.01-1.61,103.25,2.9,149.31,13.41,43.4,9.9,84.2,25.38,121.25,46,34.72,19.32,67.01,43.63,95.98,72.26,26.96,26.64,51.69,57.65,73.5,92.18,38.19,60.47,68.47,133.13,90,215.98,17.62,67.82,29.31,141.92,34.74,220.24,5.24,75.57,3.45,137.28,1.02,175.74-2.87,45.49-7.79,75.94-11.16,82.52Z"/><path class="cls-3" d="m2787.88,1079.96l-.22-.11c6.23-12.13,19.09-120.14,9.26-259.33-5.58-79.09-17.43-153.86-35.21-222.22-21.75-83.62-52.3-156.89-90.79-217.76-21.84-34.54-46.59-65.57-73.54-92.21-28.96-28.62-61.21-52.92-95.88-72.21-36.99-20.6-77.69-36.04-120.98-45.91-45.94-10.47-96.04-14.95-148.87-13.29-39.78,1.25-78.36.2-114.67-3.11-35.38-3.22-69.59-8.68-101.7-16.22-31.24-7.34-61.36-16.86-89.53-28.3-27.36-11.11-53.66-24.35-78.16-39.34-23.75-14.54-46.5-31.14-67.6-49.35-20.41-17.61-39.87-37.23-57.83-58.31-33.98-39.87-64.11-86.77-89.57-139.38-44.63-92.22-76.44-203.66-97.26-340.7-19.01-125.14-26.28-256.26-30.89-368.01h.25c4.61,111.74,11.88,242.85,30.89,367.98,20.82,137.02,52.62,248.44,97.24,340.63,25.45,52.59,55.58,99.47,89.54,139.32,17.96,21.07,37.4,40.68,57.8,58.29,21.09,18.2,43.82,34.79,67.56,49.32,24.49,14.99,50.77,28.22,78.13,39.32,28.16,11.43,58.27,20.95,89.49,28.29,32.09,7.54,66.3,13,101.66,16.21,36.29,3.3,74.86,4.35,114.63,3.1,52.87-1.66,102.97,2.82,148.93,13.3,43.31,9.87,84.04,25.33,121.05,45.94,34.68,19.31,66.96,43.62,95.93,72.26,26.97,26.65,51.72,57.69,73.58,92.25,38.5,60.89,69.06,134.18,90.82,217.83,17.79,68.38,29.64,143.16,35.22,222.27,9.83,139.24-3.05,247.32-9.29,259.47Z"/><path class="cls-3" d="m2824.8,1064.86l-.22-.11c3-5.85,7.59-36.62,10.17-82.12,2.23-39.21,3.73-101.99-1.76-178.44-5.74-79.89-17.75-155.34-35.7-224.26-21.99-84.42-52.81-158.31-91.61-219.61-21.89-34.58-46.66-65.63-73.62-92.28-28.96-28.63-61.2-52.92-95.82-72.21-36.94-20.58-77.58-36-120.78-45.84-45.84-10.44-95.8-14.88-148.49-13.18-39.07,1.26-76.98.25-112.69-2.99-34.81-3.16-68.52-8.54-100.17-15.99-30.81-7.25-60.56-16.66-88.4-27.98-27.06-11-53.1-24.11-77.39-38.96-23.56-14.41-46.15-30.88-67.14-48.94-20.32-17.49-39.71-36.97-57.64-57.91-33.97-39.67-64.2-86.33-89.84-138.7-23.59-48.17-44.1-102.84-60.97-162.48-15.41-54.49-27.9-112.78-38.18-178.21-8.92-56.75-15.94-117.55-21.46-185.88-4.42-54.63-7.86-113.57-10.82-185.5h.25c2.96,71.92,6.4,130.86,10.82,185.48,5.53,68.32,12.55,129.12,21.46,185.86,10.28,65.42,22.76,123.7,38.17,178.18,16.87,59.63,37.37,114.28,60.95,162.44,25.63,52.34,55.84,98.99,89.8,138.64,17.92,20.93,37.31,40.41,57.62,57.88,20.97,18.05,43.55,34.51,67.1,48.92,24.28,14.85,50.3,27.95,77.35,38.95,27.83,11.31,57.56,20.72,88.36,27.97,31.64,7.44,65.33,12.82,100.13,15.99,35.7,3.24,73.61,4.25,112.66,2.99,52.71-1.7,102.69,2.74,148.55,13.18,43.22,9.84,83.88,25.28,120.85,45.87,34.64,19.3,66.9,43.61,95.88,72.25,26.98,26.67,51.76,57.73,73.65,92.32,38.81,61.32,69.65,135.23,91.64,219.68,17.95,68.93,29.96,144.4,35.7,224.3,5.49,76.46,3.99,139.25,1.76,178.47-2.58,45.53-7.19,76.34-10.2,82.22Z"/><path class="cls-3" d="m2861.72,1049.76l-.22-.11c2.9-5.66,7.32-37.86,9.69-81.97,2.13-39.6,3.48-102.94-2.13-179.81-5.89-80.69-18.07-156.83-36.18-226.3-22.22-85.23-53.32-159.74-92.43-221.46-94.12-148.54-233.9-223.74-415.68-223.74-7.43,0-14.9.12-22.47.38-38.35,1.27-75.6.3-110.72-2.88-34.25-3.11-67.44-8.41-98.63-15.76-30.39-7.16-59.75-16.47-87.27-27.66-26.76-10.89-52.54-23.87-76.62-38.59-23.38-14.29-45.81-30.62-66.68-48.54-20.22-17.36-39.55-36.71-57.45-57.51-33.97-39.47-64.29-85.9-90.1-138.01-23.82-48.09-44.62-102.65-61.8-162.16-15.56-53.89-28.76-113.94-39.24-178.5-9.3-57.34-16.63-118.51-22.4-187.02-4.68-55.59-8.37-117-11.29-187.73h.25c2.92,70.72,6.61,132.12,11.29,187.71,5.77,68.5,13.09,129.67,22.39,187,10.47,64.55,23.67,124.59,39.23,178.47,17.18,59.5,37.97,114.05,61.79,162.12,25.81,52.09,56.11,98.51,90.07,137.96,17.89,20.79,37.21,40.13,57.43,57.48,20.86,17.91,43.28,34.23,66.64,48.51,24.06,14.71,49.83,27.69,76.58,38.57,27.5,11.19,56.85,20.49,87.23,27.65,31.18,7.35,64.36,12.65,98.6,15.76,35.11,3.19,72.35,4.16,110.69,2.88,7.56-.25,15.06-.38,22.48-.38,181.89,0,321.72,75.23,415.89,223.86,39.12,61.75,70.23,136.28,92.46,221.53,18.12,69.49,30.29,145.64,36.19,226.34,5.62,76.89,4.26,140.24,2.13,179.84-2.46,45.8-6.84,76.47-9.72,82.07Z"/><path class="cls-3" d="m2898.64,1034.66l-.22-.11c2.33-4.54,6.73-32.93,9.21-81.82,2.02-40,3.23-103.9-2.5-181.2-6.05-81.5-18.38-158.32-36.66-228.35-22.46-86.04-53.83-161.17-93.25-223.32-94.16-148.45-233.58-223.6-414.62-223.6-7.59,0-15.24.13-22.97.4-37.63,1.28-74.22.35-108.74-2.78-33.69-3.05-66.36-8.28-97.11-15.54-29.97-7.07-58.95-16.27-86.14-27.35-26.46-10.78-51.98-23.64-75.84-38.21-23.19-14.17-45.46-30.36-66.22-48.13-20.13-17.24-39.4-36.45-57.27-57.1-33.97-39.26-64.37-85.47-90.37-137.33-24.06-48.01-45.13-102.46-62.63-161.85-15.92-54.04-29.48-114.19-40.29-178.79-17.65-105.49-28.8-225.65-35.08-378.12h.25c6.28,152.46,17.43,272.6,35.08,378.08,10.81,64.59,24.36,124.73,40.28,178.76,17.5,59.37,38.56,113.81,62.62,161.81,25.98,51.84,56.38,98.03,90.33,137.28,17.86,20.65,37.12,39.85,57.24,57.08,20.74,17.76,43.01,33.95,66.19,48.11,23.85,14.57,49.35,27.42,75.81,38.2,27.18,11.07,56.15,20.27,86.1,27.34,30.73,7.25,63.39,12.48,97.07,15.53,34.51,3.13,71.09,4.06,108.71,2.78,7.72-.26,15.4-.4,22.98-.4,181.15,0,320.62,75.18,414.83,223.72,39.43,62.17,70.82,137.33,93.28,223.39,18.28,70.04,30.62,146.88,36.67,228.39,5.74,77.31,4.53,141.22,2.51,181.23-2.48,48.92-6.89,77.36-9.23,81.92Z"/><path class="cls-3" d="m2935.56,1019.55l-.22-.11c2.15-4.19,6.41-33.04,8.72-81.68,1.92-40.41,2.98-104.88-2.88-182.59-6.21-82.31-18.7-159.83-37.15-230.41-22.69-86.84-54.35-162.6-94.08-225.17-94.2-148.34-233.26-223.44-413.55-223.44-7.76,0-15.57.14-23.48.42-36.92,1.3-72.85.4-106.77-2.67-33.13-3-65.29-8.15-95.58-15.31-29.54-6.99-58.14-16.08-85.01-27.03-26.17-10.67-51.42-23.4-75.07-37.84-45.31-27.67-86.64-62.8-122.84-104.43-33.97-39.06-64.46-85.04-90.63-136.65-24.3-47.93-45.65-102.28-63.46-161.53-16.29-54.19-30.2-114.44-41.34-179.08-18.61-107.98-30.21-229.2-36.48-381.49h.25c6.28,152.27,17.87,273.48,36.48,381.45,11.14,64.63,25.05,124.87,41.34,179.05,17.81,59.24,39.16,113.58,63.45,161.49,26.16,51.59,56.64,97.55,90.6,136.6,36.18,41.61,77.49,76.73,122.78,104.38,23.63,14.43,48.88,27.16,75.03,37.82,26.85,10.95,55.44,20.04,84.97,27.02,30.28,7.16,62.42,12.31,95.54,15.3,33.92,3.07,69.83,3.97,106.74,2.67,7.9-.28,15.74-.42,23.49-.42,180.39,0,319.51,75.13,413.76,223.55,39.74,62.59,71.41,138.37,94.11,225.24,18.45,70.6,30.95,148.13,37.16,230.46,5.86,77.72,4.8,142.21,2.88,182.62-2.31,48.67-6.59,77.57-8.75,81.78Z"/><path class="cls-3" d="m2972.48,1004.45l-.22-.11c2.11-4.11,6.15-34.74,8.23-81.53,1.82-40.82,2.73-105.88-3.25-183.99-6.36-83.12-19.02-161.34-37.63-232.48-22.93-87.66-54.86-164.04-94.9-227.03-94.22-148.22-232.93-223.26-412.46-223.26-7.93,0-15.91.15-23.99.44-36.21,1.31-71.47.45-104.8-2.56-32.57-2.94-64.21-8.02-94.04-15.08-29.12-6.9-57.34-15.89-83.88-26.72-25.87-10.56-50.86-23.16-74.3-37.46-44.96-27.44-86.07-62.3-122.19-103.62-33.97-38.86-64.55-84.61-90.9-135.97-24.54-47.85-46.17-102.09-64.3-161.21-16.66-54.34-30.92-114.69-42.4-179.37-10.47-59.01-18.71-121.31-25.19-190.44-5.61-59.82-9.76-123.42-12.69-194.42h.25c2.93,70.99,7.08,134.58,12.68,194.4,6.48,69.12,14.72,131.41,25.19,190.42,11.47,64.67,25.73,125.01,42.39,179.34,18.12,59.11,39.75,113.34,64.28,161.17,26.33,51.34,56.9,97.07,90.86,135.92,36.1,41.3,77.2,76.15,122.13,103.57,23.42,14.3,48.41,26.89,74.26,37.45,26.53,10.83,54.73,19.81,83.84,26.71,29.83,7.06,61.45,12.14,94.01,15.08,33.32,3.01,68.57,3.87,104.77,2.56,191.33-6.91,338.24,68.09,436.68,222.94,40.05,63.01,72,139.42,94.93,227.1,18.61,71.15,31.28,149.38,37.64,232.52,5.98,78.13,5.07,143.2,3.25,184.02-2.08,46.83-6.14,77.5-8.26,81.63Z"/><path class="cls-3" d="m3009.4,989.35l-.22-.11c1.94-3.78,5.81-34.93,7.74-81.39,1.71-41.25,2.48-106.9-3.62-185.41-6.52-83.95-19.34-162.87-38.12-234.56-23.17-88.47-55.37-165.48-95.73-228.88-94.25-148.09-232.57-223.06-411.37-223.06-8.1,0-16.26.15-24.52.46-35.5,1.32-70.09.49-102.82-2.46-32-2.89-63.13-7.89-92.51-14.86-28.7-6.81-56.54-15.69-82.75-26.4-25.57-10.45-50.3-22.93-73.52-37.09-44.61-27.21-85.5-61.81-121.54-102.82-33.98-38.66-64.65-84.18-91.16-135.28-24.78-47.77-46.7-101.9-65.13-160.9-17.03-54.49-31.65-114.94-43.45-179.66-20.24-110.95-33.08-237.94-39.28-388.22h.25c6.19,150.26,19.04,277.24,39.27,388.18,11.8,64.71,26.42,125.15,43.44,179.63,18.43,58.98,40.34,113.1,65.11,160.86,26.5,51.09,57.16,96.59,91.13,135.23,36.02,40.99,76.9,75.57,121.48,102.77,23.21,14.16,47.93,26.63,73.49,37.07,26.2,10.71,54.03,19.58,82.71,26.39,29.37,6.97,60.49,11.97,92.48,14.85,32.73,2.95,67.31,3.78,102.79,2.46,190.81-7.1,337.54,67.83,436.11,222.71,40.37,63.43,72.58,140.46,95.76,228.96,18.78,71.71,31.6,150.64,38.12,234.6,6.1,78.52,5.34,144.18,3.62,185.44-1.96,47.11-5.77,77.6-7.77,81.49Z"/><path class="cls-3" d="m3046.32,974.25l-.22-.11c1.6-3.11,5.39-32.93,7.25-81.25,1.61-41.69,2.22-107.94-4-186.84-6.68-84.78-19.67-164.4-38.61-236.66-23.41-89.29-55.89-166.92-96.56-230.74-94.26-147.93-232.21-222.81-410.24-222.81-8.28,0-16.61.16-25.06.48-68.79,2.64-133.33-3.08-191.83-16.99-28.27-6.72-55.73-15.5-81.62-26.09-25.27-10.34-49.75-22.69-72.75-36.72-44.26-26.99-84.94-61.31-120.9-102.01-33.98-38.46-64.74-83.75-91.42-134.6-25.03-47.69-47.22-101.72-65.96-160.58-17.4-54.64-32.37-115.18-44.51-179.95-21.17-112.99-34.47-241.08-40.68-391.59h.25c6.2,150.49,19.51,278.57,40.67,391.54,12.13,64.75,27.1,125.29,44.5,179.92,18.74,58.84,40.92,112.86,65.94,160.54,26.67,50.83,57.42,96.1,91.39,134.55,35.94,40.68,76.6,74.99,120.84,101.96,22.99,14.02,47.46,26.37,72.71,36.7,25.87,10.58,53.32,19.36,81.58,26.08,58.48,13.9,123,19.62,191.77,16.99,190.29-7.29,336.82,67.55,435.52,222.44,40.68,63.84,73.18,141.5,96.59,230.81,18.94,72.27,31.93,151.91,38.61,236.7,6.21,78.91,5.6,145.17,4,186.87-1.8,46.77-5.45,77.79-7.28,81.35Z"/><path class="cls-3" d="m3083.23,959.15l-.22-.11c1.45-2.83,5.05-33.18,6.76-81.11,1.5-42.14,1.96-109-4.37-188.27-6.83-85.62-19.99-165.94-39.09-238.76-23.64-90.11-56.41-168.37-97.39-232.6-94.27-147.76-231.83-222.56-409.1-222.56-8.46,0-16.98.17-25.62.51-67.4,2.66-130.76-2.95-188.33-16.67-55.05-13.12-106.35-34.02-152.46-62.12-43.92-26.76-84.37-60.81-120.25-101.2-33.99-38.27-64.84-83.32-91.69-133.91-25.27-47.62-47.75-101.53-66.79-160.26-17.77-54.79-33.1-115.43-45.56-180.24-11.49-59.74-20.9-124.96-27.99-193.85-6.42-62.35-11.15-130.01-14.08-201.1h.25c2.93,71.07,7.67,138.73,14.08,201.08,7.09,68.88,16.5,134.1,27.99,193.83,12.46,64.79,27.78,125.42,45.55,180.2,19.04,58.71,41.51,112.61,66.77,160.22,26.84,50.58,57.68,95.61,91.66,133.87,35.86,40.37,76.3,74.41,120.19,101.16,46.09,28.09,97.37,48.98,152.39,62.09,57.55,13.71,120.89,19.32,188.26,16.66,189.79-7.48,336.12,67.27,434.94,222.16,41,64.25,73.77,142.54,97.42,232.67,19.11,72.83,32.26,153.17,39.1,238.8,6.33,79.28,5.87,146.16,4.37,188.3-1.73,48.65-5.28,78.29-6.79,81.22Z"/><path class="cls-3" d="m3120.15,944.05l-.22-.11c1.31-2.55,4.71-33.45,6.26-80.98,1.39-42.6,1.7-110.09-4.74-189.72-6.99-86.46-20.31-167.49-39.58-240.87-23.88-90.93-56.93-169.82-98.22-234.46-98.89-154.81-244.96-229.42-434.13-221.75-66,2.68-128.19-2.83-184.83-16.35-54.24-12.95-104.9-33.62-150.56-61.43-43.57-26.54-83.81-60.31-119.6-100.4-34-38.07-64.93-82.89-91.95-133.23-25.52-47.54-48.27-101.35-67.62-159.93-18.15-54.94-33.83-115.67-46.61-180.52-11.87-60.23-21.6-125.83-28.92-194.98-6.71-63.36-11.6-131.77-14.55-203.33h.25c2.95,71.54,7.84,139.95,14.55,203.3,7.32,69.15,17.05,134.74,28.92,194.96,12.78,64.84,28.46,125.56,46.61,180.49,19.35,58.57,42.09,112.37,67.61,159.89,27.01,50.32,57.94,95.13,91.92,133.18,35.78,40.06,76,73.83,119.54,100.35,45.64,27.8,96.28,48.46,150.49,61.41,56.62,13.52,118.78,19.02,184.76,16.34,8.81-.36,17.57-.54,26.2-.54,176.62,0,313.82,74.72,408.16,222.4,41.31,64.67,74.36,143.57,98.25,234.53,19.27,73.39,32.59,154.44,39.59,240.91,6.44,79.64,6.14,147.14,4.75,189.75-1.55,47.56-4.97,78.51-6.29,81.08Z"/><path class="cls-3" d="m3157.07,928.95l-.22-.11c1.07-2.08,4.32-32.09,5.77-80.84,1.28-43.07,1.43-111.2-5.12-191.18-7.15-87.3-20.63-169.06-40.07-242.99-24.12-91.76-57.45-171.27-99.05-236.33-22.24-34.78-47.22-65.93-74.23-92.59-28.96-28.59-61.02-52.77-95.3-71.88-36.52-20.35-76.53-35.49-118.92-45-44.92-10.07-93.73-14.09-145.09-11.95-64.61,2.69-125.62-2.7-181.33-16.03-53.43-12.79-103.44-33.23-148.66-60.75-43.22-26.31-83.25-59.82-118.95-99.59-34-37.87-65.03-82.47-92.22-132.54-25.77-47.46-48.8-101.17-68.45-159.61-18.52-55.08-34.56-115.91-47.67-180.8-12.26-60.71-22.31-126.69-29.85-196.12-6.99-64.33-12.04-133.48-15.01-205.56h.25c2.97,72.06,8.02,141.21,15.01,205.53,7.55,69.42,17.59,135.39,29.85,196.1,13.11,64.88,29.14,125.7,47.66,180.77,19.65,58.43,42.67,112.12,68.44,159.57,27.18,50.06,58.19,94.64,92.18,132.5,35.69,39.75,75.7,73.24,118.9,99.54,45.19,27.51,95.19,47.94,148.59,60.72,55.69,13.33,116.67,18.72,181.26,16.03,51.37-2.14,100.21,1.88,145.15,11.96,42.42,9.51,82.45,24.66,118.99,45.02,34.3,19.12,66.38,43.32,95.36,71.92,27.02,26.68,52.01,57.85,74.26,92.64,41.62,65.07,74.96,144.61,99.09,236.4,19.44,73.95,32.92,155.71,40.07,243.03,6.55,79.99,6.4,148.13,5.12,191.21-1.45,48.79-4.72,78.86-5.79,80.95Z"/><path class="cls-3" d="m3193.99,913.85l-.22-.11c.84-1.64,3.96-31.93,5.27-80.71,1.17-43.55,1.17-112.32-5.5-192.64-7.31-88.16-20.96-170.63-40.55-245.12-24.36-92.59-57.96-172.73-99.89-238.19-22.28-34.79-47.27-65.94-74.29-92.6-28.96-28.57-61-52.73-95.24-71.81-36.47-20.32-76.41-35.42-118.71-44.88-44.82-10.02-93.5-13.99-144.71-11.79-42.31,1.82-83.31.06-121.85-5.23-37.54-5.15-73.78-13.79-107.72-25.68-33.02-11.57-64.77-26.53-94.36-44.47-28.76-17.44-56.27-38.16-81.77-61.61-24.84-22.83-48.46-48.88-70.2-77.4-21.06-27.63-40.94-58.35-59.07-91.31-34.49-62.66-64.06-135.89-87.91-217.65-22.13-75.88-39.9-161.06-52.8-253.18-11.86-84.61-19.92-177.24-23.96-275.31h.25c4.04,98.06,12.1,190.68,23.96,275.28,12.91,92.11,30.67,177.28,52.8,253.15,23.84,81.74,53.41,154.95,87.89,217.59,18.13,32.94,38,63.65,59.05,91.28,21.73,28.51,45.34,54.54,70.17,77.36,25.49,23.43,52.99,44.15,81.73,61.58,29.58,17.93,61.31,32.89,94.32,44.45,33.92,11.88,70.15,20.52,107.67,25.67,38.52,5.29,79.5,7.04,121.8,5.23,51.23-2.2,99.94,1.77,144.77,11.8,42.33,9.47,82.29,24.57,118.78,44.9,34.26,19.09,66.32,43.26,95.29,71.85,27.03,26.67,52.03,57.84,74.32,92.64,41.94,65.48,75.55,145.64,99.92,238.26,19.6,74.51,33.25,156.99,40.56,245.16,12.59,151.83,2.04,269.92.2,273.49Z"/><path class="cls-3" d="m3230.91,898.74l-.22-.11c.57-1.1,3.57-30.72,4.77-80.59,1.06-44.05.9-113.49-5.87-194.13-7.47-89.02-21.28-172.21-41.05-247.27-24.6-93.42-58.49-174.19-100.73-240.05-22.31-34.79-47.33-65.94-74.34-92.58-28.95-28.55-60.97-52.68-95.17-71.73-36.42-20.28-76.28-35.33-118.5-44.74-44.71-9.97-93.28-13.87-144.32-11.62-41.43,1.83-81.65.11-119.51-5.1-36.92-5.09-72.61-13.64-106.1-25.42-32.62-11.47-64.03-26.32-93.36-44.14-28.54-17.33-55.89-37.95-81.29-61.26-24.72-22.69-48.26-48.57-69.97-76.9-21.08-27.51-41.01-58.08-59.23-90.87-34.79-62.6-64.71-135.7-88.93-217.24-22.65-76.25-40.85-161.68-54.09-253.92-12.3-85.7-20.6-179.17-24.67-277.81h.25c4.06,98.62,12.36,192.08,24.67,277.77,13.24,92.23,31.44,177.64,54.08,253.89,24.22,81.53,54.13,154.61,88.91,217.19,18.21,32.78,38.13,63.34,59.21,90.84,21.7,28.32,45.24,54.19,69.94,76.87,25.39,23.31,52.72,43.91,81.25,61.24,29.32,17.8,60.71,32.65,93.31,44.12,33.47,11.77,69.15,20.32,106.05,25.4,37.85,5.21,78.04,6.93,119.46,5.1,51.09-2.25,99.66,1.66,144.39,11.63,42.24,9.42,82.13,24.48,118.57,44.77,34.22,19.05,66.26,43.2,95.22,71.77,27.03,26.66,52.05,57.82,74.38,92.63,42.26,65.88,76.16,146.67,100.76,240.12,19.77,75.07,33.58,158.28,41.05,247.31,6.77,80.66,6.93,150.1,5.87,194.16-1.22,50.78-4.2,79.54-4.79,80.69Z"/><path class="cls-3" d="m3267.83,883.64l-.22-.11c.44-.87,3.24-31.67,4.27-80.98.93-44.82.59-115.33-6.38-196.67-7.74-90.31-21.87-174.56-42-250.4-25.1-94.53-59.61-176.03-102.57-242.23-22.36-34.45-47.37-65.27-74.35-91.61-28.89-28.2-60.8-52.02-94.85-70.78-36.23-19.96-75.86-34.75-117.78-43.94-44.38-9.73-92.54-13.46-143.15-11.09-40.6,1.79-80.06.06-117.28-5.13-36.32-5.07-71.5-13.58-104.56-25.3-32.24-11.43-63.33-26.21-92.42-43.94-28.34-17.28-55.54-37.82-80.85-61.05-24.57-22.56-48.02-48.27-69.68-76.41-21.08-27.38-41.04-57.79-59.32-90.4-35.06-62.52-65.3-135.43-89.86-216.69-45.05-149.03-72.19-328.89-80.67-534.58h.25c8.48,205.65,35.61,385.49,80.66,534.5,24.56,81.24,54.79,154.13,89.84,216.64,18.28,32.59,38.23,63,59.3,90.37,21.66,28.13,45.09,53.83,69.65,76.38,25.29,23.22,52.48,43.75,80.81,61.02,29.07,17.72,60.15,32.5,92.37,43.92,33.04,11.71,68.2,20.22,104.51,25.29,37.2,5.19,76.65,6.92,117.23,5.13,50.89-2.39,99.3,1.4,143.89,11.25,42.12,9.3,81.91,24.25,118.28,44.43,34.16,18.96,66.17,43.02,95.12,71.5,27.02,26.59,52.06,57.7,74.42,92.46,42.63,66.27,76.86,147.72,101.74,242.08,19.96,75.7,33.96,159.72,41.61,249.73,6.89,81.07,7.22,151.29,6.28,195.92-1.04,49.19-3.85,79.84-4.29,80.7Z"/><path class="cls-3" d="m3304.75,868.54l-.22-.11.11.06-.12-.05c.17-.52,3.1-32.67,3.88-87.65.7-48.73-.25-124.96-8.72-211.39-9.46-96.52-26.17-185.5-49.66-264.47-29.31-98.54-69.32-181.62-118.9-246.91-22.35-29.43-47.01-55.68-73.3-78.04-27.93-23.75-58.45-43.73-90.72-59.4-34.11-16.56-71.11-28.76-109.97-36.25-40.9-7.88-84.98-10.77-131.03-8.58-39.7,1.83-78.35.17-114.88-4.93-35.68-4.98-70.3-13.38-102.9-24.97-31.82-11.31-62.57-25.96-91.39-43.54-28.12-17.16-55.15-37.56-80.35-60.65-24.46-22.42-47.85-47.96-69.5-75.92-21.11-27.26-41.13-57.53-59.51-89.98-35.39-62.49-65.98-135.28-90.92-216.37-46.37-150.72-74.19-331.72-82.69-537.97h.25c8.5,206.22,36.31,387.2,82.67,537.9,24.94,81.07,55.52,153.84,90.9,216.32,18.37,32.44,38.38,62.7,59.49,89.95,21.64,27.95,45.02,53.48,69.47,75.89,25.19,23.08,52.21,43.48,80.31,60.62,28.8,17.57,59.53,32.21,91.34,43.52,32.58,11.58,67.18,19.97,102.85,24.95,36.51,5.1,75.15,6.75,114.83,4.92,50.75-2.41,99.06,1.34,143.56,11.17,42.04,9.28,81.77,24.21,118.09,44.38,34.13,18.95,66.11,43,95.06,71.49,27.03,26.59,52.08,57.72,74.48,92.5,42.92,66.68,77.42,148.74,102.52,243.9,20.11,76.23,34.27,160.95,42.08,251.78,6.99,81.32,7.47,152.18,6.64,197.31-.91,49.52-3.53,80.02-3.79,80.52Z"/><path class="cls-3" d="m3341.68,853.39l-.25-.02c.03-.37,3.04-37.5,3.45-96.33.38-54.29-1.42-138.68-12.21-232.41-12.13-105.35-32.89-200.77-61.72-283.63-17.12-49.19-37.31-94.45-60-134.5-24.97-44.05-53.59-82.91-85.07-115.47-21.73-22.48-45.3-42.45-70.05-59.36-26.01-17.77-54.05-32.66-83.33-44.24-30.67-12.13-63.56-20.97-97.75-26.28-35.71-5.54-73.83-7.39-113.31-5.49-38.79,1.87-76.64.28-112.47-4.72-35.04-4.89-69.1-13.18-101.23-24.63-31.41-11.19-61.81-25.71-90.36-43.14-27.9-17.03-54.77-37.31-79.86-60.25-94.59-86.49-168.94-214.69-221-381.04-24.2-77.33-43.69-163.5-57.91-256.13-13.63-88.74-22.64-184.71-26.79-285.25h.25c4.14,100.51,13.15,196.47,26.78,285.21,14.23,92.62,33.71,178.78,57.9,256.09,52.05,166.3,126.38,294.47,220.93,380.93,25.08,22.93,51.94,43.19,79.82,60.22,28.54,17.42,58.92,31.93,90.31,43.12,32.12,11.45,66.16,19.73,101.18,24.62,35.82,5,73.65,6.59,112.43,4.72,39.49-1.91,77.64-.06,113.36,5.49,34.21,5.31,67.12,14.16,97.81,26.29,29.3,11.59,57.36,26.48,83.38,44.27,24.76,16.92,48.34,36.91,70.08,59.4,31.5,32.58,60.13,71.45,85.11,115.53,22.71,40.07,42.9,85.33,60.02,134.54,28.84,82.87,49.61,178.32,61.74,283.68,5.96,51.74,12.91,134.07,12.21,232.44-.42,58.83-3.42,95.98-3.45,96.34Z"/></g></g></g></svg>